<?xml version="1.0" encoding="utf-8"?>
<!-- Generator: Adobe Illustrator 23.0.1, SVG Export Plug-In . SVG Version: 6.00 Build 0)  -->
<svg version="1.1" id="Layer_1" xmlns="http://www.w3.org/2000/svg" xmlns:xlink="http://www.w3.org/1999/xlink" x="0px" y="0px"
	 viewBox="0 0 484.1 317.6" style="enable-background:new 0 0 484.1 317.6;" xml:space="preserve">
<style type="text/css">
	.st0{fill:none;}
	.st1{fill:#FFFFFF;}
	.st2{font-family:'ArialMT';}
	.st3{font-size:12px;}
	.st4{fill:url(#SVGID_1_);stroke:#FFFFFF;stroke-width:0.2;stroke-miterlimit:10;}
	.st5{fill:url(#SVGID_2_);stroke:#FFFFFF;stroke-width:0.2;stroke-miterlimit:10;}
	.st6{fill:#1BA1F6;stroke:#FFFFFF;stroke-width:0.2;stroke-miterlimit:10;}
	.st7{fill:#F7931E;stroke:#FFFFFF;stroke-width:0.2;stroke-miterlimit:10;}
	.st8{fill:#EFDADA;stroke:#FFFFFF;stroke-width:0.2;stroke-miterlimit:10;}
	.st9{fill:url(#SVGID_3_);stroke:#FFFFFF;stroke-width:0.2;stroke-miterlimit:10;}
	.st10{fill:url(#SVGID_4_);stroke:#FFFFFF;stroke-width:0.2;stroke-miterlimit:10;}
</style>
<path d="M385.4,0.8L233.9,317.6H0V0.8H385.4z"/>
<path class="st0" d="M111-24v376"/>
<text transform="matrix(1 0 0 1 25 293.3888)" class="st1 st2 st3">© Unpuzzle Inc.</text>
<text transform="matrix(1 0 0 1 157.442 293.3888)" class="st1 st2 st3">Toronto, CA</text>
<radialGradient id="SVGID_1_" cx="103.0332" cy="123.3666" r="52.5934" gradientUnits="userSpaceOnUse">
	<stop  offset="0" style="stop-color:#FFFFFF"/>
	<stop  offset="1" style="stop-color:#F7931E"/>
</radialGradient>
<path class="st4" d="M146.3,141.4h-5.4V159c0,0-1.3,6.6-8,7.4h-13.3V180h-51v-38.9c0,0-10.9-10.3-13.3-25.6
	c-0.3-1.9-0.5-3.9-0.5-5.9c0-9.3,3.4-20,13.8-31.1c0,0,11.5-11.6,26.5-11.6c9.5,0,18.7,2.3,26.5,7.1c9.2,5.6,16.3,15,19.3,32v9.7
	l10,19.1C150.9,134.6,153.3,140.7,146.3,141.4z"/>
<radialGradient id="SVGID_2_" cx="97.8274" cy="91.1238" r="34.9788" gradientUnits="userSpaceOnUse">
	<stop  offset="0" style="stop-color:#FFFFFF"/>
	<stop  offset="1" style="stop-color:#F7931E"/>
</radialGradient>
<path class="st5" d="M140.9,105.8v9.7H55.2c-0.3-1.9-0.5-3.9-0.5-5.9c0-9.3,3.4-20,13.8-31.1c0,0,11.5-11.6,26.5-11.6
	c9.5,0,18.7,2.3,26.5,7.1C130.8,79.5,137.9,88.8,140.9,105.8z"/>
<path class="st6" d="M69,113.2c-0.4,0.8-1.3,0.6-1.5,0.3c-0.3-0.3-0.5-0.2-0.5-0.2c-0.4,0.1-0.4,0.6-0.4,0.6v1.5H59v-1.5
	c0-0.5-0.5-0.7-0.9-0.4c-0.4,0.3-0.7,0.3-0.7,0.3c-1,0-1-1-1-1c0.2-1.3,1.3-1.1,1.6-0.8c0.4,0.3,0.5,0.2,0.5,0.2
	c0.4,0,0.5-0.5,0.5-0.5v-2.1c0-0.1,0-0.1,0-0.1c0.1-0.3,0.4-0.3,0.4-0.3h2.1c0.9-0.1,0.5-0.9,0.5-0.9c-0.3-0.3-0.3-0.8-0.3-0.8
	c0.3-1.3,1.5-0.8,1.5-0.8c1.1,0.5,0.4,1.5,0.4,1.5c-0.3,0.4-0.2,0.6-0.2,0.6c0.1,0.4,0.5,0.4,0.5,0.4H66c0.1,0,0.2,0.1,0.3,0.1
	c0.2,0.1,0.2,0.3,0.2,0.3v2.1c0.1,0.6,0.5,0.5,0.5,0.5c0.3,0,0.6-0.3,0.6-0.3C68.5,111.3,69.4,112.4,69,113.2z"/>
<path class="st7" d="M113.8,102.7h2c0,0,0.4,0,0.5-0.4v-2.1c0,0,0-0.5,0.4-0.6c0,0,0.3-0.1,0.5,0.2c0.3,0.3,1.2,0.5,1.5-0.3
	c0.4-0.8-0.4-1.9-1.5-1.3c0,0-0.3,0.3-0.6,0.3c0,0-0.4,0-0.5-0.5v-2.1c0,0,0-0.4-0.4-0.4h-2.2c0,0-0.5,0-0.5-0.4
	c0,0-0.1-0.3,0.2-0.6c0,0,0.7-0.9-0.4-1.5c0,0-1.3-0.5-1.5,0.8c0,0,0,0.6,0.3,0.8c0,0,0.4,0.8-0.5,0.9h-2.1c0,0-0.4,0-0.4,0.4v2.1
	c0,0-0.1,0.5-0.5,0.5c0,0-0.1,0.1-0.5-0.2c-0.4-0.3-1.4-0.5-1.6,0.8c0,0,0.1,1,1,1c0,0,0.3,0,0.7-0.3c0.4-0.3,0.9-0.1,0.9,0.4v2.1
	c0,0,0.1,0.4,0.5,0.5h2c0,0,0.5,0,0.6,0.4c0.1,0.4-0.2,0.6-0.3,0.8c-0.1,0.2-0.3,0.4,0,1c0.3,0.5,1.4,0.7,1.8,0c0,0,0.3-0.6-0.1-1
	c0,0-0.3-0.3-0.3-0.6C113.1,102.8,113.4,102.6,113.8,102.7z"/>
<path class="st7" d="M76.1,113.2c-0.4,0.8-1.3,0.6-1.5,0.3c-0.3-0.3-0.5-0.2-0.5-0.2c-0.4,0.1-0.4,0.6-0.4,0.6v1.5h-7.4v-1.5
	c0-0.5-0.5-0.7-0.9-0.4c-0.4,0.3-0.7,0.3-0.7,0.3c-1,0-1-1-1-1c0.2-1.3,1.3-1.1,1.6-0.8c0.4,0.3,0.5,0.2,0.5,0.2
	c0.4,0,0.5-0.5,0.5-0.5v-2.1c0-0.2,0.1-0.3,0.2-0.3c0.1-0.1,0.3-0.1,0.3-0.1h2.1c0.9-0.1,0.5-0.9,0.5-0.9c-0.3-0.3-0.3-0.8-0.3-0.8
	c0.3-1.3,1.5-0.8,1.5-0.8c1.1,0.5,0.4,1.5,0.4,1.5c-0.3,0.4-0.2,0.6-0.2,0.6c0.1,0.4,0.5,0.4,0.5,0.4h2.2c0.1,0,0.2,0.1,0.3,0.1
	c0.1,0.1,0.1,0.3,0.1,0.3v2.1c0.1,0.6,0.5,0.5,0.5,0.5c0.3,0,0.6-0.3,0.6-0.3C75.6,111.3,76.5,112.4,76.1,113.2z"/>
<path class="st7" d="M83.2,113.2c-0.4,0.8-1.3,0.6-1.5,0.3c-0.3-0.3-0.5-0.2-0.5-0.2c-0.4,0.1-0.4,0.6-0.4,0.6v1.5h-7.4v-1.5
	c0-0.5-0.5-0.7-0.9-0.4c-0.4,0.3-0.7,0.3-0.7,0.3c-1,0-1-1-1-1c0.2-1.3,1.3-1.1,1.6-0.8c0.4,0.3,0.5,0.2,0.5,0.2
	c0.4,0,0.5-0.5,0.5-0.5v-2.1c0-0.1,0.1-0.2,0.2-0.3c0.1-0.1,0.3-0.1,0.3-0.1h2.1c0.9-0.1,0.5-0.9,0.5-0.9c-0.3-0.3-0.3-0.8-0.3-0.8
	c0.3-1.3,1.5-0.8,1.5-0.8c1.1,0.5,0.4,1.5,0.4,1.5c-0.3,0.4-0.2,0.6-0.2,0.6c0.1,0.4,0.5,0.4,0.5,0.4h2.2c0.1,0,0.2,0.1,0.3,0.1
	c0.2,0.1,0.2,0.3,0.2,0.3v2.1c0.1,0.6,0.5,0.5,0.5,0.5c0.3,0,0.6-0.3,0.6-0.3C82.8,111.3,83.6,112.4,83.2,113.2z"/>
<path class="st6" d="M90.3,113.2c-0.4,0.8-1.3,0.6-1.5,0.3c-0.3-0.3-0.5-0.2-0.5-0.2c-0.4,0.1-0.4,0.6-0.4,0.6v1.5h-7.4v-1.5
	c0-0.5-0.5-0.7-0.9-0.4c-0.4,0.3-0.7,0.3-0.7,0.3c-1,0-1-1-1-1c0.2-1.3,1.3-1.1,1.6-0.8c0.4,0.3,0.5,0.2,0.5,0.2
	c0.4,0,0.5-0.5,0.5-0.5v-2.1c0-0.2,0.1-0.3,0.2-0.3c0.1-0.1,0.3-0.1,0.3-0.1h2.1c0.9-0.1,0.5-0.9,0.5-0.9c-0.3-0.3-0.3-0.8-0.3-0.8
	c0.3-1.3,1.5-0.8,1.5-0.8c1.1,0.5,0.4,1.5,0.4,1.5c-0.3,0.4-0.2,0.6-0.2,0.6c0.1,0.4,0.5,0.4,0.5,0.4h2.2c0.2,0,0.3,0.1,0.4,0.2
	c0,0.1,0,0.2,0,0.2v2.1c0.1,0.6,0.5,0.5,0.5,0.5c0.3,0,0.6-0.3,0.6-0.3C89.9,111.3,90.7,112.4,90.3,113.2z"/>
<path class="st6" d="M97.6,113.2c-0.4,0.8-1.3,0.6-1.5,0.3c-0.3-0.3-0.5-0.2-0.5-0.2c-0.4,0.1-0.4,0.6-0.4,0.6v1.5h-7.4v-1.5
	c0-0.5-0.5-0.7-0.9-0.4c-0.4,0.3-0.7,0.3-0.7,0.3c-1,0-1-1-1-1c0.2-1.3,1.3-1.1,1.6-0.8c0.4,0.3,0.5,0.2,0.5,0.2
	c0.4,0,0.5-0.5,0.5-0.5v-2.1c0-0.1,0-0.1,0.1-0.2c0-0.1,0.1-0.1,0.1-0.1c0.1-0.1,0.3-0.1,0.3-0.1h2.1c0.9-0.1,0.5-0.9,0.5-0.9
	c-0.3-0.3-0.3-0.8-0.3-0.8c0.3-1.3,1.5-0.8,1.5-0.8c1.1,0.5,0.4,1.5,0.4,1.5c-0.3,0.4-0.2,0.6-0.2,0.6c0.1,0.4,0.5,0.4,0.5,0.4h2.2
	c0.1,0,0.2,0.1,0.3,0.1c0.1,0.1,0.1,0.3,0.1,0.3v2.1c0.1,0.6,0.5,0.5,0.5,0.5c0.3,0,0.6-0.3,0.6-0.3C97.2,111.3,98,112.4,97.6,113.2
	z"/>
<path class="st6" d="M111.9,113.2c-0.4,0.8-1.3,0.6-1.5,0.3c-0.3-0.3-0.5-0.2-0.5-0.2c-0.4,0.1-0.4,0.6-0.4,0.6v1.5h-7.4v-1.5
	c0-0.5-0.5-0.7-0.9-0.4c-0.4,0.3-0.7,0.3-0.7,0.3c-1,0-1-1-1-1c0.2-1.3,1.3-1.1,1.6-0.8c0.4,0.3,0.5,0.2,0.5,0.2
	c0.4,0,0.5-0.5,0.5-0.5v-2.1c0-0.4,0.4-0.4,0.4-0.4h2.1c0.9-0.1,0.5-0.9,0.5-0.9c-0.3-0.3-0.3-0.8-0.3-0.8c0.3-1.3,1.5-0.8,1.5-0.8
	c1.1,0.5,0.4,1.5,0.4,1.5c-0.3,0.4-0.2,0.6-0.2,0.6c0.1,0.4,0.5,0.4,0.5,0.4h2.2c0.4,0,0.4,0.4,0.4,0.4v2.1c0.1,0.6,0.5,0.5,0.5,0.5
	c0.3,0,0.6-0.3,0.6-0.3C111.4,111.3,112.3,112.4,111.9,113.2z"/>
<path class="st6" d="M61.6,113.2c-0.4,0.8-1.3,0.6-1.5,0.3c-0.3-0.3-0.5-0.2-0.5-0.2c-0.4,0.1-0.4,0.6-0.4,0.6v1.5H56l-1.3-6.4
	c0-0.1,0-0.2,0-0.3v0c0,0,0-0.1,0-0.1c0-0.7,0-1.1,0.1-1.9v0c0.4-0.2,1,0,1,0c1.1,0.5,0.4,1.5,0.4,1.5c-0.3,0.4-0.2,0.6-0.2,0.6
	c0.1,0.4,0.5,0.4,0.5,0.4h2.2c0.3,0,0.4,0.2,0.4,0.3c0,0.1,0,0.1,0,0.1v2.1c0.1,0.6,0.5,0.5,0.5,0.5c0.3,0,0.6-0.3,0.6-0.3
	C61.2,111.3,62,112.4,61.6,113.2z"/>
<path class="st6" d="M118.5,113.2c-0.4,0.8-1.3,0.6-1.5,0.3c-0.3-0.3-0.5-0.2-0.5-0.2c-0.4,0.1-0.4,0.6-0.4,0.6v1.5h-7.4v-1.5
	c0-0.5-0.5-0.7-0.9-0.4c-0.4,0.3-0.7,0.3-0.7,0.3c-1,0-1-1-1-1c0.2-1.3,1.3-1.1,1.6-0.8c0.4,0.3,0.5,0.2,0.5,0.2
	c0.4,0,0.5-0.5,0.5-0.5v-2.1c0-0.4,0.4-0.4,0.4-0.4h2.1c0.9-0.1,0.5-0.9,0.5-0.9c-0.3-0.3-0.3-0.8-0.3-0.8c0.3-1.3,1.5-0.8,1.5-0.8
	c1.1,0.5,0.4,1.5,0.4,1.5c-0.3,0.4-0.2,0.6-0.2,0.6c0.1,0.4,0.5,0.4,0.5,0.4h2.2c0.4,0,0.4,0.4,0.4,0.4v2.1c0.1,0.6,0.5,0.5,0.5,0.5
	c0.3,0,0.6-0.3,0.6-0.3C118,111.3,118.9,112.4,118.5,113.2z"/>
<path class="st7" d="M125.2,113.2c-0.4,0.8-1.3,0.6-1.5,0.3c-0.3-0.3-0.5-0.2-0.5-0.2c-0.4,0.1-0.4,0.6-0.4,0.6v1.5h-7.4v-1.5
	c0-0.5-0.5-0.7-0.9-0.4c-0.4,0.3-0.7,0.3-0.7,0.3c-1,0-1-1-1-1c0.2-1.3,1.3-1.1,1.6-0.8c0.4,0.3,0.5,0.2,0.5,0.2
	c0.4,0,0.5-0.5,0.5-0.5v-2.1c0-0.4,0.4-0.4,0.4-0.4h2.1c0.9-0.1,0.5-0.9,0.5-0.9c-0.3-0.3-0.3-0.8-0.3-0.8c0.3-1.3,1.5-0.8,1.5-0.8
	c1.1,0.5,0.4,1.5,0.4,1.5c-0.3,0.4-0.2,0.6-0.2,0.6c0.1,0.4,0.5,0.4,0.5,0.4h2.2c0.4,0,0.4,0.4,0.4,0.4v2.1c0.1,0.6,0.5,0.5,0.5,0.5
	c0.3,0,0.6-0.3,0.6-0.3C124.7,111.3,125.6,112.4,125.2,113.2z"/>
<path class="st7" d="M131.8,113.2c-0.4,0.8-1.3,0.6-1.5,0.3c-0.3-0.3-0.5-0.2-0.5-0.2c-0.4,0.1-0.4,0.6-0.4,0.6v1.5h-7.4v-1.5
	c0-0.5-0.5-0.7-0.9-0.4c-0.4,0.3-0.7,0.3-0.7,0.3c-1,0-1-1-1-1c0.2-1.3,1.3-1.1,1.6-0.8c0.4,0.3,0.5,0.2,0.5,0.2
	c0.4,0,0.5-0.5,0.5-0.5v-2.1c0-0.4,0.4-0.4,0.4-0.4h2.1c0.9-0.1,0.5-0.9,0.5-0.9c-0.3-0.3-0.3-0.8-0.3-0.8c0.3-1.3,1.5-0.8,1.5-0.8
	c1.1,0.5,0.4,1.5,0.4,1.5c-0.3,0.4-0.2,0.6-0.2,0.6c0.1,0.4,0.5,0.4,0.5,0.4h2.2c0.4,0,0.4,0.4,0.4,0.4v2.1c0.1,0.6,0.5,0.5,0.5,0.5
	c0.3,0,0.6-0.3,0.6-0.3C131.4,111.3,132.2,112.4,131.8,113.2z"/>
<path class="st6" d="M138.4,113.2c-0.4,0.8-1.3,0.6-1.5,0.3c-0.3-0.3-0.5-0.2-0.5-0.2c-0.4,0.1-0.4,0.6-0.4,0.6v1.5h-7.4v-1.5
	c0-0.5-0.5-0.7-0.9-0.4c-0.4,0.3-0.7,0.3-0.7,0.3c-1,0-1-1-1-1c0.2-1.3,1.3-1.1,1.6-0.8c0.4,0.3,0.5,0.2,0.5,0.2
	c0.4,0,0.5-0.5,0.5-0.5v-2.1c0-0.4,0.4-0.4,0.4-0.4h2.1c0.9-0.1,0.5-0.9,0.5-0.9c-0.3-0.3-0.3-0.8-0.3-0.8c0.3-1.3,1.5-0.8,1.5-0.8
	c1.1,0.5,0.4,1.5,0.4,1.5c-0.3,0.4-0.2,0.6-0.2,0.6c0.1,0.4,0.5,0.4,0.5,0.4h2.2c0.4,0,0.4,0.4,0.4,0.4v2.1c0.1,0.6,0.5,0.5,0.5,0.5
	c0.3,0,0.6-0.3,0.6-0.3C138,111.3,138.8,112.4,138.4,113.2z"/>
<path class="st6" d="M61.1,106.8c-0.4,0.8-1.3,0.6-1.5,0.3c-0.3-0.3-0.5-0.2-0.5-0.2c-0.4,0.1-0.4,0.6-0.4,0.6v1.5h-3.8l0-0.1
	c0-0.1,0-0.2,0-0.3v0c0,0,0-0.1,0-0.1c0-0.7,0-1.1,0.1-1.9v0c0.2-1.9,0.5-3.9,1-6c0.3,0.5-0.1,1.1-0.1,1.1c-0.3,0.4-0.2,0.6-0.2,0.6
	c0.1,0.4,0.5,0.4,0.5,0.4h2.2c0.1,0,0.2,0.1,0.3,0.1c0.2,0.1,0.2,0.3,0.2,0.3v2.1c0.1,0.6,0.5,0.5,0.5,0.5c0.3,0,0.6-0.3,0.6-0.3
	C60.7,104.9,61.5,106,61.1,106.8z"/>
<path class="st7" d="M104.8,113.2c-0.4,0.8-1.3,0.6-1.5,0.3c-0.3-0.3-0.5-0.2-0.5-0.2c-0.4,0.1-0.4,0.6-0.4,0.6v1.5h-7.4v-1.5
	c0-0.5-0.5-0.7-0.9-0.4c-0.4,0.3-0.7,0.3-0.7,0.3c-1,0-1-1-1-1c0.2-1.3,1.3-1.1,1.6-0.8c0.4,0.3,0.5,0.2,0.5,0.2
	c0.4,0,0.5-0.5,0.5-0.5v-2.1c0-0.1,0.1-0.2,0.2-0.3c0.1-0.1,0.3-0.1,0.3-0.1h2.1c0.9-0.1,0.5-0.9,0.5-0.9c-0.3-0.3-0.3-0.8-0.3-0.8
	c0.3-1.3,1.5-0.8,1.5-0.8c1.1,0.5,0.4,1.5,0.4,1.5c-0.3,0.4-0.2,0.6-0.2,0.6c0.1,0.4,0.5,0.4,0.5,0.4h2.2c0.4,0,0.4,0.4,0.4,0.4v2.1
	c0.1,0.6,0.5,0.5,0.5,0.5c0.3,0,0.6-0.3,0.6-0.3C104.3,111.3,105.2,112.4,104.8,113.2z"/>
<path class="st6" d="M140.9,109.1v6.4h-5.7v-1.5c0-0.5-0.5-0.7-0.9-0.4c-0.4,0.3-0.7,0.3-0.7,0.3c-1,0-1-1-1-1
	c0.2-1.3,1.3-1.1,1.6-0.8c0.4,0.3,0.5,0.2,0.5,0.2c0.4,0,0.5-0.5,0.5-0.5v-2.1c0-0.4,0.4-0.4,0.4-0.4h2.1c0.9-0.1,0.5-0.9,0.5-0.9
	c-0.3-0.3-0.3-0.8-0.3-0.8c0.3-1.3,1.5-0.8,1.5-0.8c1.1,0.5,0.4,1.5,0.4,1.5c-0.3,0.4-0.2,0.6-0.2,0.6c0.1,0.4,0.5,0.4,0.5,0.4
	H140.9z"/>
<path class="st7" d="M128.2,102.7h2c0,0,0.4,0,0.5-0.4v-2.1c0,0,0-0.5,0.4-0.6c0,0,0.3-0.1,0.5,0.2s1.2,0.5,1.5-0.3
	c0.4-0.8-0.4-1.9-1.5-1.3c0,0-0.3,0.3-0.6,0.3c0,0-0.4,0-0.5-0.5v-2.1c0,0,0-0.4-0.4-0.4h-2.2c0,0-0.5,0-0.5-0.4
	c0,0-0.1-0.3,0.2-0.6c0,0,0.7-0.9-0.4-1.5c0,0-1.3-0.5-1.5,0.8c0,0,0,0.6,0.3,0.8c0,0,0.4,0.8-0.5,0.9h-2.1c0,0-0.4,0-0.4,0.4v2.1
	c0,0-0.1,0.5-0.5,0.5c0,0-0.1,0.1-0.5-0.2c-0.4-0.3-1.4-0.5-1.6,0.8c0,0,0.1,1,1,1c0,0,0.3,0,0.7-0.3c0.4-0.3,0.9-0.1,0.9,0.4v2.1
	c0,0,0.1,0.4,0.5,0.5h2c0,0,0.5,0,0.6,0.4c0.1,0.4-0.2,0.6-0.3,0.8c-0.1,0.2-0.3,0.4,0,1c0.3,0.5,1.4,0.7,1.8,0c0,0,0.3-0.6-0.1-1
	c0,0-0.3-0.3-0.3-0.6C127.5,102.8,127.9,102.6,128.2,102.7z"/>
<path class="st6" d="M92.2,102.7h2c0,0,0.4,0,0.5-0.4v-2.1c0,0,0-0.5,0.4-0.6c0,0,0.3-0.1,0.5,0.2s1.2,0.5,1.5-0.3
	c0.4-0.8-0.4-1.9-1.5-1.3c0,0-0.3,0.3-0.6,0.3c0,0-0.4,0-0.5-0.5v-2.1c0,0,0-0.4-0.4-0.4H92c0,0-0.5,0-0.5-0.4c0,0-0.1-0.3,0.2-0.6
	c0,0,0.7-0.9-0.4-1.5c0,0-1.3-0.5-1.5,0.8c0,0,0,0.6,0.3,0.8c0,0,0.4,0.8-0.5,0.9h-2.1c0,0-0.4,0-0.4,0.4v2.1c0,0-0.1,0.5-0.5,0.5
	c0,0-0.1,0.1-0.5-0.2s-1.4-0.5-1.6,0.8c0,0,0.1,1,1,1c0,0,0.3,0,0.7-0.3c0.4-0.3,0.9-0.1,0.9,0.4v2.1c0,0,0.1,0.4,0.5,0.5h2
	c0,0,0.5,0,0.6,0.4c0.1,0.4-0.2,0.6-0.3,0.8c-0.1,0.2-0.3,0.4,0,1c0.3,0.5,1.4,0.7,1.8,0c0,0,0.3-0.6-0.1-1c0,0-0.3-0.3-0.3-0.6
	C91.5,102.8,91.8,102.6,92.2,102.7z"/>
<path class="st7" d="M70.4,102.7h2c0,0,0.4,0,0.5-0.4v-2.1c0,0,0-0.5,0.4-0.6c0,0,0.3-0.1,0.5,0.2c0.3,0.3,1.2,0.5,1.5-0.3
	c0.4-0.8-0.4-1.9-1.5-1.3c0,0-0.3,0.3-0.6,0.3c0,0-0.4,0-0.5-0.5v-2.1c0,0,0-0.4-0.4-0.4h-2.2c0,0-0.5,0-0.5-0.4
	c0,0-0.1-0.3,0.2-0.6c0,0,0.7-0.9-0.4-1.5c0,0-1.3-0.5-1.5,0.8c0,0,0,0.6,0.3,0.8c0,0,0.4,0.8-0.5,0.9h-2.1c0,0-0.4,0-0.4,0.4v2.1
	c0,0-0.1,0.5-0.5,0.5c0,0-0.1,0.1-0.5-0.2C64,97.9,63,97.7,62.8,99c0,0,0.1,1,1,1c0,0,0.3,0,0.7-0.3s0.9-0.1,0.9,0.4v2.1
	c0,0,0.1,0.4,0.5,0.5h2c0,0,0.5,0,0.6,0.4c0.1,0.4-0.2,0.6-0.3,0.8c-0.1,0.2-0.3,0.4,0,1c0.3,0.5,1.4,0.7,1.8,0c0,0,0.3-0.6-0.1-1
	c0,0-0.3-0.3-0.3-0.6C69.7,102.8,70,102.6,70.4,102.7z"/>
<path class="st7" d="M72.4,85.2l1.1-0.5c0,0,0.2-0.1,0.1-0.4l-0.5-1.2c0,0-0.1-0.3,0.1-0.4c0,0,0.1-0.1,0.4,0c0.2,0.1,0.8,0,0.8-0.6
	c0-0.6-0.8-1-1.2-0.3c0,0-0.1,0.2-0.3,0.3c0,0-0.2,0.1-0.4-0.2l-0.6-1.2c0,0-0.1-0.2-0.4-0.1l-1.2,0.6c0,0-0.3,0.1-0.4-0.1
	c0,0-0.1-0.1,0-0.4c0,0,0.1-0.7-0.6-0.7c0,0-0.8,0.1-0.6,0.9c0,0,0.1,0.3,0.4,0.4c0,0,0.5,0.3,0,0.6l-1.2,0.6c0,0-0.2,0.1-0.1,0.4
	l0.6,1.2c0,0,0.1,0.3-0.2,0.4c0,0,0,0.1-0.3,0c-0.3-0.1-0.9,0.1-0.7,0.9c0,0,0.3,0.6,0.9,0.3c0,0,0.2-0.1,0.3-0.4
	c0.1-0.3,0.5-0.3,0.6,0l0.5,1.2c0,0,0.1,0.2,0.4,0.1l1.1-0.5c0,0,0.3-0.2,0.5,0c0.2,0.2,0,0.4,0,0.5c0,0.1,0,0.3,0.3,0.5s1,0,1-0.5
	c0,0,0-0.4-0.3-0.6c0,0-0.2-0.1-0.3-0.3C72,85.5,72.2,85.3,72.4,85.2z"/>
<line class="st8" x1="65.5" y1="102.7" x2="65.5" y2="102.7"/>
<path class="st7" d="M66.5,104.7c0,0-0.3,0.3-0.6,0.3c0,0-0.4,0-0.5-0.5v-1.7h-2.5c-0.9,0.1-0.5,0.9-0.5,0.9
	c0.3,0.3,0.3,0.8,0.3,0.8c-0.3,1.3-1.5,0.8-1.5,0.8c-1.1-0.5-0.4-1.5-0.4-1.5c0.3-0.4,0.2-0.6,0.2-0.6c-0.1-0.4-0.5-0.4-0.5-0.4H58
	v1.7c0,0-0.1,0.5-0.5,0.5c0,0-0.1,0.1-0.5-0.2s-1.4-0.5-1.6,0.8c0,0,0.1,1,1,1c0,0,0.3,0,0.7-0.3c0.4-0.3,0.9-0.1,0.9,0.4v2.1
	c0,0,0.1,0.4,0.5,0.5h2c0,0,0.5,0,0.6,0.4c0.1,0.4-0.2,0.6-0.3,0.8c-0.1,0.2-0.3,0.4,0,1c0.3,0.5,1.4,0.7,1.8,0c0,0,0.3-0.6-0.1-1
	c0,0-0.3-0.3-0.3-0.6s0.3-0.5,0.7-0.5h2c0,0,0.4,0,0.5-0.4v-2.1c0,0,0-0.5,0.4-0.6c0,0,0.3-0.1,0.5,0.2c0.3,0.3,1.2,0.5,1.5-0.3
	C68.4,105.1,67.5,104,66.5,104.7z"/>
<path class="st6" d="M73.8,104.7c0,0-0.3,0.3-0.6,0.3c0,0-0.4,0-0.5-0.5v-1.7h-2.5c-0.9,0.1-0.5,0.9-0.5,0.9
	c0.3,0.3,0.3,0.8,0.3,0.8c-0.3,1.3-1.5,0.8-1.5,0.8c-1.1-0.5-0.4-1.5-0.4-1.5c0.3-0.4,0.2-0.6,0.2-0.6c-0.1-0.4-0.5-0.4-0.5-0.4
	h-2.6v1.7c0,0-0.1,0.5-0.5,0.5c0,0-0.1,0.1-0.5-0.2s-1.4-0.5-1.6,0.8c0,0,0.1,1,1,1c0,0,0.3,0,0.7-0.3c0.4-0.3,0.9-0.1,0.9,0.4v2.1
	c0,0,0.1,0.4,0.5,0.5h2c0,0,0.5,0,0.6,0.4c0.1,0.4-0.2,0.6-0.3,0.8c-0.1,0.2-0.3,0.4,0,1c0.3,0.5,1.4,0.7,1.8,0c0,0,0.3-0.6-0.1-1
	c0,0-0.3-0.3-0.3-0.6s0.3-0.5,0.7-0.5h2c0,0,0.4,0,0.5-0.4v-2.1c0,0,0-0.5,0.4-0.6c0,0,0.3-0.1,0.5,0.2c0.3,0.3,1.2,0.5,1.5-0.3
	C75.7,105.1,74.8,104,73.8,104.7z"/>
<path class="st6" d="M80.9,104.7c0,0-0.3,0.3-0.6,0.3c0,0-0.4,0-0.5-0.5v-1.7h-2.5c-0.9,0.1-0.5,0.9-0.5,0.9
	c0.3,0.3,0.3,0.8,0.3,0.8c-0.3,1.3-1.5,0.8-1.5,0.8c-1.1-0.5-0.4-1.5-0.4-1.5c0.3-0.4,0.2-0.6,0.2-0.6c-0.1-0.4-0.5-0.4-0.5-0.4
	h-2.6v1.7c0,0-0.1,0.5-0.5,0.5c0,0-0.1,0.1-0.5-0.2s-1.4-0.5-1.6,0.8c0,0,0.1,1,1,1c0,0,0.3,0,0.7-0.3c0.4-0.3,0.9-0.1,0.9,0.4v2.1
	c0,0,0.1,0.4,0.5,0.5h2c0,0,0.5,0,0.6,0.4c0.1,0.4-0.2,0.6-0.3,0.8c-0.1,0.2-0.3,0.4,0,1c0.3,0.5,1.4,0.7,1.8,0c0,0,0.3-0.6-0.1-1
	c0,0-0.3-0.3-0.3-0.6s0.3-0.5,0.7-0.5h2c0,0,0.4,0,0.5-0.4v-2.1c0,0,0-0.5,0.4-0.6c0,0,0.3-0.1,0.5,0.2c0.3,0.3,1.2,0.5,1.5-0.3
	C82.8,105.1,81.9,104,80.9,104.7z"/>
<g>
	<line class="st6" x1="101.4" y1="80" x2="101.4" y2="80"/>
	<path class="st6" d="M102.4,82c0,0-0.3,0.3-0.6,0.3c0,0-0.4,0-0.5-0.5V80h-2.5c-0.9,0.1-0.5,0.9-0.5,0.9c0.3,0.3,0.3,0.8,0.3,0.8
		c-0.3,1.3-1.5,0.8-1.5,0.8c-1.1-0.5-0.4-1.5-0.4-1.5c0.3-0.4,0.2-0.6,0.2-0.6C97,80,96.5,80,96.5,80h-2.6v1.7c0,0-0.1,0.5-0.5,0.5
		c0,0-0.1,0.1-0.5-0.2s-1.4-0.5-1.6,0.8c0,0,0.1,1,1,1c0,0,0.3,0,0.7-0.3c0.4-0.3,0.9-0.1,0.9,0.4V86c0,0,0.1,0.4,0.5,0.5h2
		c0,0,0.5,0,0.6,0.4c0.1,0.4-0.2,0.6-0.3,0.8s-0.3,0.4,0,1c0.3,0.5,1.4,0.7,1.8,0c0,0,0.3-0.6-0.1-1c0,0-0.3-0.3-0.3-0.6
		c0-0.3,0.3-0.5,0.7-0.5h2c0,0,0.4,0,0.5-0.4V84c0,0,0-0.5,0.4-0.6c0,0,0.3-0.1,0.5,0.2c0.3,0.3,1.2,0.5,1.5-0.3
		C104.2,82.4,103.4,81.3,102.4,82z"/>
</g>
<path class="st7" d="M88.3,104.7c0,0-0.3,0.3-0.6,0.3c0,0-0.4,0-0.5-0.5v-1.7h-2.5c-0.9,0.1-0.5,0.9-0.5,0.9
	c0.3,0.3,0.3,0.8,0.3,0.8c-0.3,1.3-1.5,0.8-1.5,0.8c-1.1-0.5-0.4-1.5-0.4-1.5c0.3-0.4,0.2-0.6,0.2-0.6c-0.1-0.4-0.5-0.4-0.5-0.4
	h-2.6v1.7c0,0-0.1,0.5-0.5,0.5c0,0-0.1,0.1-0.5-0.2s-1.4-0.5-1.6,0.8c0,0,0.1,1,1,1c0,0,0.3,0,0.7-0.3c0.4-0.3,0.9-0.1,0.9,0.4v2.1
	c0,0,0.1,0.4,0.5,0.5h2c0,0,0.5,0,0.6,0.4c0.1,0.4-0.2,0.6-0.3,0.8c-0.1,0.2-0.3,0.4,0,1c0.3,0.5,1.4,0.7,1.8,0c0,0,0.3-0.6-0.1-1
	c0,0-0.3-0.3-0.3-0.6s0.3-0.5,0.7-0.5h2c0,0,0.4,0,0.5-0.4v-2.1c0,0,0-0.5,0.4-0.6c0,0,0.3-0.1,0.5,0.2c0.3,0.3,1.2,0.5,1.5-0.3
	C90.1,105.1,89.3,104,88.3,104.7z"/>
<path class="st7" d="M95.6,104.7c0,0-0.3,0.3-0.6,0.3c0,0-0.4,0-0.5-0.5v-1.7h-2.5c-0.9,0.1-0.5,0.9-0.5,0.9
	c0.3,0.3,0.3,0.8,0.3,0.8c-0.3,1.3-1.5,0.8-1.5,0.8c-1.1-0.5-0.4-1.5-0.4-1.5c0.3-0.4,0.2-0.6,0.2-0.6c-0.1-0.4-0.5-0.4-0.5-0.4
	h-2.6v1.7c0,0-0.1,0.5-0.5,0.5c0,0-0.1,0.1-0.5-0.2s-1.4-0.5-1.6,0.8c0,0,0.1,1,1,1c0,0,0.3,0,0.7-0.3c0.4-0.3,0.9-0.1,0.9,0.4v2.1
	c0,0,0.1,0.4,0.5,0.5h2c0,0,0.5,0,0.6,0.4c0.1,0.4-0.2,0.6-0.3,0.8c-0.1,0.2-0.3,0.4,0,1c0.3,0.5,1.4,0.7,1.8,0c0,0,0.3-0.6-0.1-1
	c0,0-0.3-0.3-0.3-0.6s0.3-0.5,0.7-0.5h2c0,0,0.4,0,0.5-0.4v-2.1c0,0,0-0.5,0.4-0.6c0,0,0.3-0.1,0.5,0.2c0.3,0.3,1.2,0.5,1.5-0.3
	C97.5,105.1,96.6,104,95.6,104.7z"/>
<path class="st6" d="M102.7,104.7c0,0-0.3,0.3-0.6,0.3c0,0-0.4,0-0.5-0.5v-1.7h-2.5c-0.9,0.1-0.5,0.9-0.5,0.9
	c0.3,0.3,0.3,0.8,0.3,0.8c-0.3,1.3-1.5,0.8-1.5,0.8c-1.1-0.5-0.4-1.5-0.4-1.5c0.3-0.4,0.2-0.6,0.2-0.6c-0.1-0.4-0.5-0.4-0.5-0.4
	h-2.6v1.7c0,0-0.1,0.5-0.5,0.5c0,0-0.1,0.1-0.5-0.2s-1.4-0.5-1.6,0.8c0,0,0.1,1,1,1c0,0,0.3,0,0.7-0.3c0.4-0.3,0.9-0.1,0.9,0.4v2.1
	c0,0,0.1,0.4,0.5,0.5h2c0,0,0.5,0,0.6,0.4c0.1,0.4-0.2,0.6-0.3,0.8c-0.1,0.2-0.3,0.4,0,1c0.3,0.5,1.4,0.7,1.8,0c0,0,0.3-0.6-0.1-1
	c0,0-0.3-0.3-0.3-0.6s0.3-0.5,0.7-0.5h2c0,0,0.4,0,0.5-0.4v-2.1c0,0,0-0.5,0.4-0.6c0,0,0.3-0.1,0.5,0.2c0.3,0.3,1.2,0.5,1.5-0.3
	C104.6,105.1,103.7,104,102.7,104.7z"/>
<path class="st6" d="M86,76.6c0,0,0.1,0.4-0.1,0.6c0,0-0.2,0.3-0.7,0l-1.3-1l-1.5,2c-0.5,0.8,0.4,0.9,0.4,0.9
	c0.4-0.1,0.9,0.2,0.9,0.2c0.9,1-0.3,1.7-0.3,1.7c-1.1,0.5-1.4-0.6-1.4-0.6c-0.1-0.5-0.3-0.6-0.3-0.6c-0.4-0.2-0.7,0.2-0.7,0.2
	l-1.6,2.1l1.4,1c0,0,0.3,0.4,0.1,0.7c0,0,0,0.1-0.5,0.2c-0.5,0.1-1.3,0.8-0.3,1.8c0,0,0.9,0.6,1.4-0.2c0,0,0.2-0.2,0.2-0.7
	c0-0.5,0.5-0.7,0.9-0.4l1.6,1.2c0,0,0.3,0.2,0.6-0.1l1.2-1.6c0,0,0.3-0.4,0.7-0.3c0.4,0.1,0.3,0.6,0.4,0.7c0.1,0.2,0.2,0.5,0.8,0.6
	c0.6,0.1,1.4-0.7,1.1-1.5c0,0-0.3-0.6-0.9-0.6c0,0-0.4,0.1-0.6-0.1s-0.2-0.6,0.1-0.8l1.2-1.6c0,0,0.2-0.3-0.1-0.6l-1.6-1.2
	c0,0-0.4-0.3-0.2-0.7c0,0,0.1-0.2,0.5-0.3c0.4-0.1,1.1-0.6,0.7-1.4C87.4,75.4,86,75.4,86,76.6z"/>
<path class="st7" d="M117.2,104.7c0,0-0.3,0.3-0.6,0.3c0,0-0.4,0-0.5-0.5v-1.7h-2.5c-0.9,0.1-0.5,0.9-0.5,0.9
	c0.3,0.3,0.3,0.8,0.3,0.8c-0.3,1.3-1.5,0.8-1.5,0.8c-1.1-0.5-0.4-1.5-0.4-1.5c0.3-0.4,0.2-0.6,0.2-0.6c-0.1-0.4-0.5-0.4-0.5-0.4
	h-2.6v1.7c0,0-0.1,0.5-0.5,0.5c0,0-0.1,0.1-0.5-0.2c-0.4-0.3-1.4-0.5-1.6,0.8c0,0,0.1,1,1,1c0,0,0.3,0,0.7-0.3
	c0.4-0.3,0.9-0.1,0.9,0.4v2.1c0,0,0.1,0.4,0.5,0.5h2c0,0,0.5,0,0.6,0.4c0.1,0.4-0.2,0.6-0.3,0.8c-0.1,0.2-0.3,0.4,0,1
	c0.3,0.5,1.4,0.7,1.8,0c0,0,0.3-0.6-0.1-1c0,0-0.3-0.3-0.3-0.6c0-0.3,0.3-0.5,0.7-0.5h2c0,0,0.4,0,0.5-0.4v-2.1c0,0,0-0.5,0.4-0.6
	c0,0,0.3-0.1,0.5,0.2c0.3,0.3,1.2,0.5,1.5-0.3C119.1,105.1,118.3,104,117.2,104.7z"/>
<path class="st6" d="M124.3,104.7c0,0-0.3,0.3-0.6,0.3c0,0-0.4,0-0.5-0.5v-1.7h-2.5c-0.9,0.1-0.5,0.9-0.5,0.9
	c0.3,0.3,0.3,0.8,0.3,0.8c-0.3,1.3-1.5,0.8-1.5,0.8c-1.1-0.5-0.4-1.5-0.4-1.5c0.3-0.4,0.2-0.6,0.2-0.6c-0.1-0.4-0.5-0.4-0.5-0.4
	h-2.6v1.7c0,0-0.1,0.5-0.5,0.5c0,0-0.1,0.1-0.5-0.2c-0.4-0.3-1.4-0.5-1.6,0.8c0,0,0.1,1,1,1c0,0,0.3,0,0.7-0.3
	c0.4-0.3,0.9-0.1,0.9,0.4v2.1c0,0,0.1,0.4,0.5,0.5h2c0,0,0.5,0,0.6,0.4c0.1,0.4-0.2,0.6-0.3,0.8c-0.1,0.2-0.3,0.4,0,1
	c0.3,0.5,1.4,0.7,1.8,0c0,0,0.3-0.6-0.1-1c0,0-0.3-0.3-0.3-0.6c0-0.3,0.3-0.5,0.7-0.5h2c0,0,0.4,0,0.5-0.4v-2.1c0,0,0-0.5,0.4-0.6
	c0,0,0.3-0.1,0.5,0.2c0.3,0.3,1.2,0.5,1.5-0.3C126.2,105.1,125.4,104,124.3,104.7z"/>
<path class="st6" d="M131.7,104.7c0,0-0.3,0.3-0.6,0.3c0,0-0.4,0-0.5-0.5v-1.7h-2.5c-0.9,0.1-0.5,0.9-0.5,0.9
	c0.3,0.3,0.3,0.8,0.3,0.8c-0.3,1.3-1.5,0.8-1.5,0.8c-1.1-0.5-0.4-1.5-0.4-1.5c0.3-0.4,0.2-0.6,0.2-0.6c-0.1-0.4-0.5-0.4-0.5-0.4
	h-2.6v1.7c0,0-0.1,0.5-0.5,0.5c0,0-0.1,0.1-0.5-0.2c-0.4-0.3-1.4-0.5-1.6,0.8c0,0,0.1,1,1,1c0,0,0.3,0,0.7-0.3
	c0.4-0.3,0.9-0.1,0.9,0.4v2.1c0,0,0.1,0.4,0.5,0.5h2c0,0,0.5,0,0.6,0.4c0.1,0.4-0.2,0.6-0.3,0.8c-0.1,0.2-0.3,0.4,0,1
	c0.3,0.5,1.4,0.7,1.8,0c0,0,0.3-0.6-0.1-1c0,0-0.3-0.3-0.3-0.6c0-0.3,0.3-0.5,0.7-0.5h2c0,0,0.4,0,0.5-0.4v-2.1c0,0,0-0.5,0.4-0.6
	c0,0,0.3-0.1,0.5,0.2c0.3,0.3,1.2,0.5,1.5-0.3C133.6,105.1,132.7,104,131.7,104.7z"/>
<path class="st6" d="M140.4,110.5c0,0.3,0.3,0.6,0.3,0.6c0.4,0.5,0.1,1,0.1,1c-0.4,0.7-1.5,0.6-1.8,0c-0.3-0.5-0.1-0.8,0-1
	c0.1-0.2,0.4-0.4,0.3-0.8c-0.1-0.4-0.6-0.4-0.6-0.4h-2c-0.4-0.1-0.5-0.5-0.5-0.5v-2.1c0-0.5-0.5-0.7-0.9-0.4
	c-0.4,0.3-0.7,0.3-0.7,0.3c-1,0-1-1-1-1c0.2-1.3,1.3-1.1,1.6-0.8c0.4,0.3,0.5,0.2,0.5,0.2c0.4,0,0.5-0.5,0.5-0.5v-2.1
	c0-0.4,0.4-0.4,0.4-0.4h2.1c0.9-0.1,0.5-0.9,0.5-0.9c-0.3-0.3-0.3-0.8-0.3-0.8c0.1-0.7,0.6-0.9,0.9-0.9c0.2,0.8,0.4,1.7,0.6,2.6
	c0.2,1,0.4,2,0.6,3.1v4.3C140.6,110.1,140.4,110.3,140.4,110.5z"/>
<path class="st7" d="M139,104.7c0,0-0.3,0.3-0.6,0.3c0,0-0.4,0-0.5-0.5v-1.7h-2.5c-0.9,0.1-0.5,0.9-0.5,0.9c0.3,0.3,0.3,0.8,0.3,0.8
	c-0.3,1.3-1.5,0.8-1.5,0.8c-1.1-0.5-0.4-1.5-0.4-1.5c0.3-0.4,0.2-0.6,0.2-0.6c-0.1-0.4-0.5-0.4-0.5-0.4h-2.6v1.7
	c0,0-0.1,0.5-0.5,0.5c0,0-0.1,0.1-0.5-0.2c-0.4-0.3-1.4-0.5-1.6,0.8c0,0,0.1,1,1,1c0,0,0.3,0,0.7-0.3c0.4-0.3,0.9-0.1,0.9,0.4v2.1
	c0,0,0.1,0.4,0.5,0.5h2c0,0,2.2,0,2.5,0h2c0,0,0.4,0,0.5-0.4v-2.1c0,0,0-0.5,0.4-0.6c0,0,0.3-0.1,0.5,0.2c0.3,0.3,1.2,0.5,1.5-0.3
	C140.9,105.1,140,104,139,104.7z"/>
<path class="st6" d="M119.2,93.9l1.3,0.7c0,0,0.3,0.1,0.5-0.1l0.7-1.4c0,0,0.2-0.4,0.5-0.2c0,0,0.2,0.1,0.3,0.3
	c0.1,0.3,0.6,0.7,1.1,0.3c0.5-0.4,0.4-1.4-0.5-1.3c0,0-0.3,0.1-0.5,0c0,0-0.3-0.1-0.1-0.5l0.7-1.4c0,0,0.1-0.3-0.1-0.4l-1.4-0.7
	c0,0-0.3-0.1-0.2-0.5c0,0,0-0.2,0.4-0.3c0,0,0.8-0.4,0.2-1.1c0,0-0.7-0.7-1.3,0c0,0-0.2,0.4,0,0.7c0,0,0,0.7-0.6,0.4l-1.4-0.7
	c0,0-0.3-0.1-0.4,0.1l-0.7,1.4c0,0-0.2,0.3-0.5,0.1c0,0-0.1,0-0.2-0.3c-0.1-0.3-0.7-0.8-1.3,0c0,0-0.3,0.7,0.3,1c0,0,0.2,0.1,0.6,0
	c0.4-0.1,0.6,0.2,0.4,0.6l-0.7,1.4c0,0-0.1,0.3,0.2,0.5l1.3,0.7c0,0,0.4,0.2,0.3,0.5c-0.1,0.3-0.4,0.3-0.5,0.4
	c-0.1,0.1-0.3,0.2-0.3,0.7c0,0.4,0.7,0.9,1.2,0.6c0,0,0.4-0.3,0.3-0.7c0,0-0.1-0.3,0-0.5C118.7,93.8,119,93.7,119.2,93.9z"/>
<path class="st7" d="M86.2,93.6c0,0,0.3-0.3,0.6-0.3c0,0,0.4,0,0.5,0.5v1.7h2.5c0.9-0.1,0.5-0.9,0.5-0.9c-0.3-0.3-0.3-0.8-0.3-0.8
	c0.3-1.3,1.5-0.8,1.5-0.8c1.1,0.5,0.4,1.5,0.4,1.5c-0.3,0.4-0.2,0.6-0.2,0.6c0.1,0.4,0.5,0.4,0.5,0.4h2.6v-1.7c0,0,0.1-0.5,0.5-0.5
	c0,0,0.1-0.1,0.5,0.2c0.4,0.3,1.4,0.5,1.6-0.8c0,0-0.1-1-1-1c0,0-0.3,0-0.7,0.3c-0.4,0.3-0.9,0.1-0.9-0.4v-2.1c0,0-0.1-0.4-0.5-0.5
	h-2c0,0-0.5,0-0.6-0.4c-0.1-0.4,0.2-0.6,0.3-0.8c0.1-0.2,0.3-0.4,0-1c-0.3-0.5-1.4-0.7-1.8,0c0,0-0.3,0.6,0.1,1c0,0,0.3,0.3,0.3,0.6
	c0,0.3-0.3,0.5-0.7,0.5h-2c0,0-0.4,0-0.5,0.4v2.1c0,0,0,0.5-0.4,0.6c0,0-0.3,0.1-0.5-0.2c-0.3-0.3-1.2-0.5-1.5,0.3
	S85.1,94.2,86.2,93.6z"/>
<path class="st7" d="M38.3,81.9l1.1,0.9c0,0,0.2,0.2,0.5,0l1-1.2c0,0,0.2-0.3,0.5-0.1c0,0,0.2,0.1,0.2,0.4c0,0.3,0.4,0.8,1,0.5
	c0.6-0.3,0.7-1.3-0.2-1.4c0,0-0.3,0-0.4-0.1c0,0-0.3-0.2,0-0.5l1-1.2c0,0,0.2-0.2,0-0.4l-1.2-1c0,0-0.3-0.2-0.1-0.5
	c0,0,0.1-0.2,0.4-0.2c0,0,0.8-0.2,0.5-1c0,0-0.5-0.9-1.3-0.2c0,0-0.3,0.3-0.2,0.6c0,0-0.1,0.6-0.7,0.3l-1.2-1c0,0-0.3-0.2-0.4,0
	l-1,1.2c0,0-0.3,0.3-0.5,0c0,0-0.1,0-0.2-0.3c-0.1-0.3-0.5-1-1.3-0.3c0,0-0.5,0.6,0.1,1.1c0,0,0.2,0.1,0.5,0.1
	c0.4,0,0.5,0.4,0.3,0.7l-1,1.2c0,0-0.2,0.3,0.1,0.5l1.2,0.9c0,0,0.3,0.2,0.2,0.5c-0.1,0.3-0.4,0.2-0.5,0.3c-0.1,0.1-0.4,0.1-0.4,0.6
	c-0.1,0.4,0.5,1,1.1,0.8c0,0,0.4-0.2,0.5-0.6c0,0,0-0.3,0.1-0.5S38.1,81.7,38.3,81.9z"/>
<path class="st7" d="M44.6,67.5l1.1,0.9c0,0,0.2,0.2,0.5,0l1-1.2c0,0,0.2-0.3,0.5-0.1c0,0,0.2,0.1,0.2,0.4c0,0.3,0.4,0.8,1,0.5
	c0.6-0.3,0.7-1.3-0.2-1.4c0,0-0.3,0-0.4-0.1c0,0-0.3-0.2,0-0.5l1-1.2c0,0,0.2-0.2,0-0.4l-1.2-1c0,0-0.3-0.2-0.1-0.5
	c0,0,0.1-0.2,0.4-0.2c0,0,0.8-0.2,0.5-1c0,0-0.5-0.9-1.3-0.2c0,0-0.3,0.3-0.2,0.6c0,0-0.1,0.6-0.7,0.3l-1.2-1c0,0-0.3-0.2-0.4,0
	l-1,1.2c0,0-0.3,0.3-0.5,0c0,0-0.1,0-0.2-0.3c-0.1-0.3-0.5-1-1.3-0.3c0,0-0.5,0.6,0.1,1.1c0,0,0.2,0.1,0.5,0.1
	c0.4,0,0.5,0.4,0.3,0.7l-1,1.2c0,0-0.2,0.3,0.1,0.5l1.2,0.9c0,0,0.3,0.2,0.2,0.5s-0.4,0.2-0.5,0.3s-0.4,0.1-0.4,0.6
	c-0.1,0.4,0.5,1,1.1,0.8c0,0,0.4-0.2,0.5-0.6c0,0,0-0.3,0.1-0.5C44.1,67.3,44.4,67.3,44.6,67.5z"/>
<path class="st6" d="M50.9,82.2l1.1,0.9c0,0,0.2,0.2,0.5,0l1-1.2c0,0,0.2-0.3,0.5-0.1c0,0,0.2,0.1,0.2,0.4c0,0.3,0.4,0.8,1,0.5
	c0.6-0.3,0.7-1.3-0.2-1.4c0,0-0.3,0-0.4-0.1c0,0-0.3-0.2,0-0.5l1-1.2c0,0,0.2-0.2,0-0.4l-1.2-1c0,0-0.3-0.2-0.1-0.5
	c0,0,0.1-0.2,0.4-0.2c0,0,0.8-0.2,0.5-1c0,0-0.5-0.9-1.3-0.2c0,0-0.3,0.3-0.2,0.6c0,0-0.1,0.6-0.7,0.3l-1.2-1c0,0-0.3-0.2-0.4,0
	l-1,1.2c0,0-0.3,0.3-0.5,0c0,0-0.1,0-0.2-0.3c-0.1-0.3-0.5-1-1.3-0.3c0,0-0.5,0.6,0.1,1.1c0,0,0.2,0.1,0.5,0.1s0.5,0.4,0.3,0.7
	l-1,1.2c0,0-0.2,0.3,0.1,0.5l1.2,0.9c0,0,0.3,0.2,0.2,0.5c-0.1,0.3-0.4,0.2-0.5,0.3s-0.4,0.1-0.4,0.6c-0.1,0.4,0.5,1,1.1,0.8
	c0,0,0.4-0.2,0.5-0.6c0,0,0-0.3,0.1-0.5S50.7,82,50.9,82.2z"/>
<path class="st7" d="M62.6,75.8l1.1,0.9c0,0,0.2,0.2,0.5,0l1-1.2c0,0,0.2-0.3,0.5-0.1c0,0,0.2,0.1,0.2,0.4c0,0.3,0.4,0.8,1,0.5
	c0.6-0.3,0.7-1.3-0.2-1.4c0,0-0.3,0-0.4-0.1c0,0-0.3-0.2,0-0.5l1-1.2c0,0,0.2-0.2,0-0.4l-1.2-1c0,0-0.3-0.2-0.1-0.5
	c0,0,0.1-0.2,0.4-0.2c0,0,0.8-0.2,0.5-1c0,0-0.5-0.9-1.3-0.2c0,0-0.3,0.3-0.2,0.6c0,0-0.1,0.6-0.7,0.3l-1.2-1c0,0-0.3-0.2-0.4,0
	l-1,1.2c0,0-0.3,0.3-0.5,0c0,0-0.1,0-0.2-0.3c-0.1-0.3-0.5-1-1.3-0.3c0,0-0.5,0.6,0.1,1.1c0,0,0.2,0.1,0.5,0.1s0.5,0.4,0.3,0.7
	l-1,1.2c0,0-0.2,0.3,0.1,0.5l1.2,0.9c0,0,0.3,0.2,0.2,0.5c-0.1,0.3-0.4,0.2-0.5,0.3s-0.4,0.1-0.4,0.6c-0.1,0.4,0.5,1,1.1,0.8
	c0,0,0.4-0.2,0.5-0.6c0,0,0-0.3,0.1-0.5S62.4,75.6,62.6,75.8z"/>
<path class="st7" d="M128.1,66.6l1.1,0.9c0,0,0.2,0.2,0.5,0l1-1.2c0,0,0.2-0.3,0.5-0.1c0,0,0.2,0.1,0.2,0.4c0,0.3,0.4,0.8,1,0.5
	c0.6-0.3,0.7-1.3-0.2-1.4c0,0-0.3,0-0.4-0.1c0,0-0.3-0.2,0-0.5l1-1.2c0,0,0.2-0.2,0-0.4l-1.2-1c0,0-0.3-0.2-0.1-0.5
	c0,0,0.1-0.2,0.4-0.2c0,0,0.8-0.2,0.5-1c0,0-0.5-0.9-1.3-0.2c0,0-0.3,0.3-0.2,0.6c0,0-0.1,0.6-0.7,0.3l-1.2-1c0,0-0.3-0.2-0.4,0
	l-1,1.2c0,0-0.3,0.3-0.5,0c0,0-0.1,0-0.2-0.3c-0.1-0.3-0.5-1-1.3-0.3c0,0-0.5,0.6,0.1,1.1c0,0,0.2,0.1,0.5,0.1
	c0.4,0,0.5,0.4,0.3,0.7l-1,1.2c0,0-0.2,0.3,0.1,0.5l1.2,0.9c0,0,0.3,0.2,0.2,0.5c-0.1,0.3-0.4,0.2-0.5,0.3c-0.1,0.1-0.4,0.1-0.4,0.6
	c-0.1,0.4,0.5,1,1.1,0.8c0,0,0.4-0.2,0.5-0.6c0,0,0-0.3,0.1-0.5C127.6,66.4,127.9,66.4,128.1,66.6z"/>
<path class="st6" d="M36.9,57.7l1.1,0.9c0,0,0.2,0.2,0.5,0l1-1.2c0,0,0.2-0.3,0.5-0.1c0,0,0.2,0.1,0.2,0.4s0.4,0.8,1,0.5
	c0.6-0.3,0.7-1.3-0.2-1.4c0,0-0.3,0-0.4-0.1c0,0-0.3-0.2,0-0.5l1-1.2c0,0,0.2-0.2,0-0.4l-1.2-1c0,0-0.3-0.2-0.1-0.5
	c0,0,0.1-0.2,0.4-0.2c0,0,0.8-0.2,0.5-1c0,0-0.5-0.9-1.3-0.2c0,0-0.3,0.3-0.2,0.6c0,0-0.1,0.6-0.7,0.3l-1.2-1c0,0-0.3-0.2-0.4,0
	l-1,1.2c0,0-0.3,0.3-0.5,0c0,0-0.1,0-0.2-0.3c-0.1-0.3-0.5-1-1.3-0.3c0,0-0.5,0.6,0.1,1.1c0,0,0.2,0.1,0.5,0.1
	c0.4,0,0.5,0.4,0.3,0.7l-1,1.2c0,0-0.2,0.3,0.1,0.5l1.2,0.9c0,0,0.3,0.2,0.2,0.5c-0.1,0.3-0.4,0.2-0.5,0.3s-0.4,0.1-0.4,0.6
	c-0.1,0.4,0.5,1,1.1,0.8c0,0,0.4-0.2,0.5-0.6c0,0,0-0.3,0.1-0.5C36.5,57.4,36.7,57.5,36.9,57.7z"/>
<path class="st6" d="M44.6,92.7l1.1,0.9c0,0,0.2,0.2,0.5,0l1-1.2c0,0,0.2-0.3,0.5-0.1c0,0,0.2,0.1,0.2,0.4c0,0.3,0.4,0.8,1,0.5
	c0.6-0.3,0.7-1.3-0.2-1.4c0,0-0.3,0-0.4-0.1c0,0-0.3-0.2,0-0.5l1-1.2c0,0,0.2-0.2,0-0.4l-1.2-1c0,0-0.3-0.2-0.1-0.5
	c0,0,0.1-0.2,0.4-0.2c0,0,0.8-0.2,0.5-1c0,0-0.5-0.9-1.3-0.2c0,0-0.3,0.3-0.2,0.6c0,0-0.1,0.6-0.7,0.3l-1.2-1c0,0-0.3-0.2-0.4,0
	l-1,1.2c0,0-0.3,0.3-0.5,0c0,0-0.1,0-0.2-0.3c-0.1-0.3-0.5-1-1.3-0.3c0,0-0.5,0.6,0.1,1.1c0,0,0.2,0.1,0.5,0.1
	c0.4,0,0.5,0.4,0.3,0.7l-1,1.2c0,0-0.2,0.3,0.1,0.5l1.2,0.9c0,0,0.3,0.2,0.2,0.5s-0.4,0.2-0.5,0.3s-0.4,0.1-0.4,0.6
	c-0.1,0.4,0.5,1,1.1,0.8c0,0,0.4-0.2,0.5-0.6c0,0,0-0.3,0.1-0.5C44.1,92.5,44.4,92.5,44.6,92.7z"/>
<path class="st6" d="M42.7,77.1l1.1,0.9c0,0,0.2,0.2,0.5,0l1-1.2c0,0,0.2-0.3,0.5-0.1c0,0,0.2,0.1,0.2,0.4c0,0.3,0.4,0.8,1,0.5
	c0.6-0.3,0.7-1.3-0.2-1.4c0,0-0.3,0-0.4-0.1c0,0-0.3-0.2,0-0.5l1-1.2c0,0,0.2-0.2,0-0.4l-1.2-1c0,0-0.3-0.2-0.1-0.5
	c0,0,0.1-0.2,0.4-0.2c0,0,0.8-0.2,0.5-1c0,0-0.5-0.9-1.3-0.2c0,0-0.3,0.3-0.2,0.6c0,0-0.1,0.6-0.7,0.3l-1.2-1c0,0-0.3-0.2-0.4,0
	L42,72c0,0-0.3,0.3-0.5,0c0,0-0.1,0-0.2-0.3c-0.1-0.3-0.5-1-1.3-0.3c0,0-0.5,0.6,0.1,1.1c0,0,0.2,0.1,0.5,0.1c0.4,0,0.5,0.4,0.3,0.7
	l-1,1.2c0,0-0.2,0.3,0.1,0.5l1.2,0.9c0,0,0.3,0.2,0.2,0.5c-0.1,0.3-0.4,0.2-0.5,0.3s-0.4,0.1-0.4,0.6c-0.1,0.4,0.5,1,1.1,0.8
	c0,0,0.4-0.2,0.5-0.6c0,0,0-0.3,0.1-0.5C42.2,76.9,42.5,76.9,42.7,77.1z"/>
<path class="st6" d="M81.5,61.9l1.1,0.9c0,0,0.2,0.2,0.5,0l1-1.2c0,0,0.2-0.3,0.5-0.1c0,0,0.2,0.1,0.2,0.4s0.4,0.8,1,0.5
	c0.6-0.3,0.7-1.3-0.2-1.4c0,0-0.3,0-0.4-0.1c0,0-0.3-0.2,0-0.5l1-1.2c0,0,0.2-0.2,0-0.4l-1.2-1c0,0-0.3-0.2-0.1-0.5
	c0,0,0.1-0.2,0.4-0.2c0,0,0.8-0.2,0.5-1c0,0-0.5-0.9-1.3-0.2c0,0-0.3,0.3-0.2,0.6c0,0-0.1,0.6-0.7,0.3l-1.2-1c0,0-0.3-0.2-0.4,0
	l-1,1.2c0,0-0.3,0.3-0.5,0c0,0-0.1,0-0.2-0.3c-0.1-0.3-0.5-1-1.3-0.3c0,0-0.5,0.6,0.1,1.1c0,0,0.2,0.1,0.5,0.1
	c0.4,0,0.5,0.4,0.3,0.7l-1,1.2c0,0-0.2,0.3,0.1,0.5l1.2,0.9c0,0,0.3,0.2,0.2,0.5c-0.1,0.3-0.4,0.2-0.5,0.3c-0.1,0.1-0.4,0.1-0.4,0.6
	c-0.1,0.4,0.5,1,1.1,0.8c0,0,0.4-0.2,0.5-0.6c0,0,0-0.3,0.1-0.5C81,61.7,81.3,61.7,81.5,61.9z"/>
<path class="st6" d="M44.6,99.3l1.1,0.9c0,0,0.2,0.2,0.5,0l1-1.2c0,0,0.2-0.3,0.5-0.1c0,0,0.2,0.1,0.2,0.4c0,0.3,0.4,0.8,1,0.5
	s0.7-1.3-0.2-1.4c0,0-0.3,0-0.4-0.1c0,0-0.3-0.2,0-0.5l1-1.2c0,0,0.2-0.2,0-0.4l-1.2-1c0,0-0.3-0.2-0.1-0.5c0,0,0.1-0.2,0.4-0.2
	c0,0,0.8-0.2,0.5-1c0,0-0.5-0.9-1.3-0.2c0,0-0.3,0.3-0.2,0.6c0,0-0.1,0.6-0.7,0.3l-1.2-1c0,0-0.3-0.2-0.4,0l-1,1.2
	c0,0-0.3,0.3-0.5,0c0,0-0.1,0-0.2-0.3s-0.5-1-1.3-0.3c0,0-0.5,0.6,0.1,1.1c0,0,0.2,0.1,0.5,0.1s0.5,0.4,0.3,0.7l-1,1.2
	c0,0-0.2,0.3,0.1,0.5l1.2,0.9c0,0,0.3,0.2,0.2,0.5c-0.1,0.3-0.4,0.2-0.5,0.3c-0.1,0.1-0.4,0.1-0.4,0.6c-0.1,0.4,0.5,1,1.1,0.8
	c0,0,0.4-0.2,0.5-0.6c0,0,0-0.3,0.1-0.5C44.1,99.1,44.4,99.1,44.6,99.3z"/>
<path class="st6" d="M73.4,58.1l1.1,0.9c0,0,0.2,0.2,0.5,0l1-1.2c0,0,0.2-0.3,0.5-0.1c0,0,0.2,0.1,0.2,0.4c0,0.3,0.4,0.8,1,0.5
	c0.6-0.3,0.7-1.3-0.2-1.4c0,0-0.3,0-0.4-0.1c0,0-0.3-0.2,0-0.5l1-1.2c0,0,0.2-0.2,0-0.4l-1.2-1c0,0-0.3-0.2-0.1-0.5
	c0,0,0.1-0.2,0.4-0.2c0,0,0.8-0.2,0.5-1c0,0-0.5-0.9-1.3-0.2c0,0-0.3,0.3-0.2,0.6c0,0-0.1,0.6-0.7,0.3l-1.2-1c0,0-0.3-0.2-0.4,0
	l-1,1.2c0,0-0.3,0.3-0.5,0c0,0-0.1,0-0.2-0.3c-0.1-0.3-0.5-1-1.3-0.3c0,0-0.5,0.6,0.1,1.1c0,0,0.2,0.1,0.5,0.1
	c0.4,0,0.5,0.4,0.3,0.7l-1,1.2c0,0-0.2,0.3,0.1,0.5l1.2,0.9c0,0,0.3,0.2,0.2,0.5c-0.1,0.3-0.4,0.2-0.5,0.3c-0.1,0.1-0.4,0.1-0.4,0.6
	s0.5,1,1.1,0.8c0,0,0.4-0.2,0.5-0.6c0,0,0-0.3,0.1-0.5C72.9,57.9,73.2,57.9,73.4,58.1z"/>
<path class="st6" d="M52.2,54.3l1.1,0.9c0,0,0.2,0.2,0.5,0l1-1.2c0,0,0.2-0.3,0.5-0.1c0,0,0.2,0.1,0.2,0.4c0,0.3,0.4,0.8,1,0.5
	c0.6-0.3,0.7-1.3-0.2-1.4c0,0-0.3,0-0.4-0.1c0,0-0.3-0.2,0-0.5l1-1.2c0,0,0.2-0.2,0-0.4l-1.2-1c0,0-0.3-0.2-0.1-0.5
	c0,0,0.1-0.2,0.4-0.2c0,0,0.8-0.2,0.5-1c0,0-0.5-0.9-1.3-0.2c0,0-0.3,0.3-0.2,0.6c0,0-0.1,0.6-0.7,0.3l-1.2-1c0,0-0.3-0.2-0.4,0
	l-1,1.2c0,0-0.3,0.3-0.5,0c0,0-0.1,0-0.2-0.3c-0.1-0.3-0.5-1-1.3-0.3c0,0-0.5,0.6,0.1,1.1c0,0,0.2,0.1,0.5,0.1s0.5,0.4,0.3,0.7
	l-1,1.2c0,0-0.2,0.3,0.1,0.5l1.2,0.9c0,0,0.3,0.2,0.2,0.5c-0.1,0.3-0.4,0.2-0.5,0.3s-0.4,0.1-0.4,0.6c-0.1,0.4,0.5,1,1.1,0.8
	c0,0,0.4-0.2,0.5-0.6c0,0,0-0.3,0.1-0.5C51.8,54.1,52,54.1,52.2,54.3z"/>
<path class="st6" d="M55.5,65.7l1.1,0.9c0,0,0.2,0.2,0.5,0l1-1.2c0,0,0.2-0.3,0.5-0.1c0,0,0.2,0.1,0.2,0.4c0,0.3,0.4,0.8,1,0.5
	c0.6-0.3,0.7-1.3-0.2-1.4c0,0-0.3,0-0.4-0.1c0,0-0.3-0.2,0-0.5l1-1.2c0,0,0.2-0.2,0-0.4l-1.2-1c0,0-0.3-0.2-0.1-0.5
	c0,0,0.1-0.2,0.4-0.2c0,0,0.8-0.2,0.5-1c0,0-0.5-0.9-1.3-0.2c0,0-0.3,0.3-0.2,0.6c0,0-0.1,0.6-0.7,0.3l-1.2-1c0,0-0.3-0.2-0.4,0
	l-1,1.2c0,0-0.3,0.3-0.5,0c0,0-0.1,0-0.2-0.3c-0.1-0.3-0.5-1-1.3-0.3c0,0-0.5,0.6,0.1,1.1c0,0,0.2,0.1,0.5,0.1
	c0.4,0,0.5,0.4,0.3,0.7l-1,1.2c0,0-0.2,0.3,0.1,0.5l1.2,0.9c0,0,0.3,0.2,0.2,0.5s-0.4,0.2-0.5,0.3s-0.4,0.1-0.4,0.6
	c-0.1,0.4,0.5,1,1.1,0.8c0,0,0.4-0.2,0.5-0.6c0,0,0-0.3,0.1-0.5C55,65.5,55.3,65.5,55.5,65.7z"/>
<path class="st6" d="M66.4,67.5l1.1,0.9c0,0,0.2,0.2,0.5,0l1-1.2c0,0,0.2-0.3,0.5-0.1c0,0,0.2,0.1,0.2,0.4c0,0.3,0.4,0.8,1,0.5
	c0.6-0.3,0.7-1.3-0.2-1.4c0,0-0.3,0-0.4-0.1c0,0-0.3-0.2,0-0.5l1-1.2c0,0,0.2-0.2,0-0.4l-1.2-1c0,0-0.3-0.2-0.1-0.5
	c0,0,0.1-0.2,0.4-0.2c0,0,0.8-0.2,0.5-1c0,0-0.5-0.9-1.3-0.2c0,0-0.3,0.3-0.2,0.6c0,0-0.1,0.6-0.7,0.3l-1.2-1c0,0-0.3-0.2-0.4,0
	l-1,1.2c0,0-0.3,0.3-0.5,0c0,0-0.1,0-0.2-0.3c-0.1-0.3-0.5-1-1.3-0.3c0,0-0.5,0.6,0.1,1.1c0,0,0.2,0.1,0.5,0.1
	c0.4,0,0.5,0.4,0.3,0.7l-1,1.2c0,0-0.2,0.3,0.1,0.5l1.2,0.9c0,0,0.3,0.2,0.2,0.5c-0.1,0.3-0.4,0.2-0.5,0.3c-0.1,0.1-0.4,0.1-0.4,0.6
	c-0.1,0.4,0.5,1,1.1,0.8c0,0,0.4-0.2,0.5-0.6c0,0,0-0.3,0.1-0.5C65.9,67.3,66.2,67.3,66.4,67.5z"/>
<path class="st7" d="M107.7,58.1l1.1,0.9c0,0,0.2,0.2,0.5,0l1-1.2c0,0,0.2-0.3,0.5-0.1c0,0,0.2,0.1,0.2,0.4c0,0.3,0.4,0.8,1,0.5
	c0.6-0.3,0.7-1.3-0.2-1.4c0,0-0.3,0-0.4-0.1c0,0-0.3-0.2,0-0.5l1-1.2c0,0,0.2-0.2,0-0.4l-1.2-1c0,0-0.3-0.2-0.1-0.5
	c0,0,0.1-0.2,0.4-0.2c0,0,0.8-0.2,0.5-1c0,0-0.5-0.9-1.3-0.2c0,0-0.3,0.3-0.2,0.6c0,0-0.1,0.6-0.7,0.3l-1.2-1c0,0-0.3-0.2-0.4,0
	l-1,1.2c0,0-0.3,0.3-0.5,0c0,0-0.1,0-0.2-0.3c-0.1-0.3-0.5-1-1.3-0.3c0,0-0.5,0.6,0.1,1.1c0,0,0.2,0.1,0.5,0.1
	c0.4,0,0.5,0.4,0.3,0.7l-1,1.2c0,0-0.2,0.3,0.1,0.5l1.2,0.9c0,0,0.3,0.2,0.2,0.5c-0.1,0.3-0.4,0.2-0.5,0.3c-0.1,0.1-0.4,0.1-0.4,0.6
	c-0.1,0.4,0.5,1,1.1,0.8c0,0,0.4-0.2,0.5-0.6c0,0,0-0.3,0.1-0.5C107.2,57.9,107.5,57.9,107.7,58.1z"/>
<path class="st6" d="M34.4,90.5l1.1,0.9c0,0,0.2,0.2,0.5,0l1-1.2c0,0,0.2-0.3,0.5-0.1c0,0,0.2,0.1,0.2,0.4c0,0.3,0.4,0.8,1,0.5
	s0.7-1.3-0.2-1.4c0,0-0.3,0-0.4-0.1c0,0-0.3-0.2,0-0.5l1-1.2c0,0,0.2-0.2,0-0.4l-1.2-1c0,0-0.3-0.2-0.1-0.5c0,0,0.1-0.2,0.4-0.2
	c0,0,0.8-0.2,0.5-1c0,0-0.5-0.9-1.3-0.2c0,0-0.3,0.3-0.2,0.6c0,0-0.1,0.6-0.7,0.3l-1.2-1c0,0-0.3-0.2-0.4,0l-1,1.2
	c0,0-0.3,0.3-0.5,0c0,0-0.1,0-0.2-0.3c-0.1-0.3-0.5-1-1.3-0.3c0,0-0.5,0.6,0.1,1.1c0,0,0.2,0.1,0.5,0.1s0.5,0.4,0.3,0.7l-1,1.2
	c0,0-0.2,0.3,0.1,0.5l1.2,0.9c0,0,0.3,0.2,0.2,0.5C33,90,32.7,90,32.6,90.1c-0.1,0.1-0.4,0.1-0.4,0.6s0.5,1,1.1,0.8
	c0,0,0.4-0.2,0.5-0.6c0,0,0-0.3,0.1-0.5C34,90.2,34.2,90.3,34.4,90.5z"/>
<path class="st7" d="M137.1,58.1l-1.1,1c0,0-0.2,0.2,0,0.5l1.1,1.1c0,0,0.3,0.3,0.1,0.5c0,0-0.1,0.2-0.4,0.2c-0.3,0-0.9,0.3-0.6,1
	c0.2,0.7,1.2,0.8,1.4-0.1c0,0,0-0.3,0.2-0.4c0,0,0.2-0.2,0.5,0l1.1,1.1c0,0,0.2,0.2,0.4,0L141,62c0,0,0.2-0.2,0.5-0.1
	c0,0,0.2,0.1,0.2,0.4c0,0,0.1,0.8,1,0.6c0,0,0.9-0.4,0.4-1.2c0,0-0.3-0.3-0.6-0.3c0,0-0.6-0.2-0.2-0.7l1.1-1.1c0,0,0.2-0.2,0-0.5
	l-1.1-1.1c0,0-0.2-0.3,0-0.5c0,0,0-0.1,0.4-0.1c0.3,0,1-0.4,0.4-1.3c0,0-0.6-0.5-1.1,0c0,0-0.2,0.1-0.2,0.5c0,0.4-0.4,0.5-0.7,0.2
	l-1.1-1.1c0,0-0.2-0.2-0.5,0l-1.1,1c0,0-0.3,0.3-0.5,0.1c-0.3-0.2-0.2-0.4-0.2-0.6c-0.1-0.1-0.1-0.4-0.5-0.5c-0.4-0.1-1.1,0.4-1,1
	c0,0,0.1,0.5,0.6,0.5c0,0,0.3,0,0.4,0.2S137.3,58,137.1,58.1z"/>
<path class="st7" d="M146.9,91.5l-1.1,1c0,0-0.2,0.2,0,0.5l1.1,1.1c0,0,0.3,0.3,0.1,0.5c0,0-0.1,0.2-0.4,0.2c-0.3,0-0.9,0.3-0.6,1
	c0.2,0.7,1.2,0.8,1.4-0.1c0,0,0-0.3,0.2-0.4c0,0,0.2-0.2,0.5,0l1.1,1.1c0,0,0.2,0.2,0.4,0l1.1-1.1c0,0,0.2-0.2,0.5-0.1
	c0,0,0.2,0.1,0.2,0.4c0,0,0.1,0.8,1,0.6c0,0,0.9-0.4,0.4-1.2c0,0-0.3-0.3-0.6-0.3c0,0-0.6-0.2-0.2-0.7l1.1-1.1c0,0,0.2-0.2,0-0.5
	l-1.1-1.1c0,0-0.2-0.3,0-0.5c0,0,0-0.1,0.4-0.1c0.3,0,1-0.4,0.4-1.3c0,0-0.6-0.5-1.1,0c0,0-0.2,0.1-0.2,0.5c0,0.4-0.4,0.5-0.7,0.2
	l-1.1-1.1c0,0-0.2-0.2-0.5,0l-1.1,1c0,0-0.3,0.3-0.5,0.1c-0.3-0.2-0.2-0.4-0.2-0.6s-0.1-0.4-0.5-0.5c-0.4-0.1-1.1,0.4-1,1
	c0,0,0.1,0.5,0.6,0.5c0,0,0.3,0,0.4,0.2S147.1,91.3,146.9,91.5z"/>
<path class="st6" d="M129.6,79.5l-1.1,1c0,0-0.2,0.2,0,0.5l1.1,1.1c0,0,0.3,0.3,0.1,0.5c0,0-0.1,0.2-0.4,0.2c-0.3,0-0.9,0.3-0.6,1
	c0.2,0.7,1.2,0.8,1.4-0.1c0,0,0-0.3,0.2-0.4c0,0,0.2-0.2,0.5,0l1.1,1.1c0,0,0.2,0.2,0.4,0l1.1-1.1c0,0,0.2-0.2,0.5-0.1
	c0,0,0.2,0.1,0.2,0.4c0,0,0.1,0.8,1,0.6c0,0,0.9-0.4,0.4-1.2c0,0-0.3-0.3-0.6-0.3c0,0-0.6-0.2-0.2-0.7l1.1-1.1c0,0,0.2-0.2,0-0.5
	l-1.1-1.1c0,0-0.2-0.3,0-0.5c0,0,0-0.1,0.4-0.1c0.3,0,1-0.4,0.4-1.3c0,0-0.6-0.5-1.1,0c0,0-0.2,0.1-0.2,0.5c0,0.4-0.4,0.5-0.7,0.2
	l-1.1-1.1c0,0-0.2-0.2-0.5,0l-1.1,1c0,0-0.3,0.3-0.5,0.1c-0.3-0.2-0.2-0.4-0.2-0.6s-0.1-0.4-0.5-0.5c-0.4-0.1-1.1,0.4-1,1
	c0,0,0.1,0.5,0.6,0.5c0,0,0.3,0,0.4,0.2S129.8,79.3,129.6,79.5z"/>
<path class="st6" d="M124.3,77.1l-1.1,1c0,0-0.2,0.2,0,0.5l1.1,1.1c0,0,0.3,0.3,0.1,0.5c0,0-0.1,0.2-0.4,0.2c-0.3,0-0.9,0.3-0.6,1
	c0.2,0.7,1.2,0.8,1.4-0.1c0,0,0-0.3,0.2-0.4c0,0,0.2-0.2,0.5,0l1.1,1.1c0,0,0.2,0.2,0.4,0l1.1-1.1c0,0,0.2-0.2,0.5-0.1
	c0,0,0.2,0.1,0.2,0.4c0,0,0.1,0.8,1,0.6c0,0,0.9-0.4,0.4-1.2c0,0-0.3-0.3-0.6-0.3c0,0-0.6-0.2-0.2-0.7l1.1-1.1c0,0,0.2-0.2,0-0.5
	l-1.1-1.1c0,0-0.2-0.3,0-0.5c0,0,0-0.1,0.4-0.1c0.3,0,1-0.4,0.4-1.3c0,0-0.6-0.5-1.1,0c0,0-0.2,0.1-0.2,0.5c0,0.4-0.4,0.5-0.7,0.2
	l-1.1-1.1c0,0-0.2-0.2-0.5,0l-1.1,1c0,0-0.3,0.3-0.5,0.1c-0.3-0.2-0.2-0.4-0.2-0.6c-0.1-0.1-0.1-0.4-0.5-0.5c-0.4-0.1-1.1,0.4-1,1
	c0,0,0.1,0.5,0.6,0.5c0,0,0.3,0,0.4,0.2S124.6,76.9,124.3,77.1z"/>
<path class="st7" d="M131.6,45.3l-1.1,1c0,0-0.2,0.2,0,0.5l1.1,1.1c0,0,0.3,0.3,0.1,0.5c0,0-0.1,0.2-0.4,0.2c-0.3,0-0.9,0.3-0.6,1
	c0.2,0.7,1.2,0.8,1.4-0.1c0,0,0-0.3,0.2-0.4c0,0,0.2-0.2,0.5,0l1.1,1.1c0,0,0.2,0.2,0.4,0l1.1-1.1c0,0,0.2-0.2,0.5-0.1
	c0,0,0.2,0.1,0.2,0.4c0,0,0.1,0.8,1,0.6c0,0,0.9-0.4,0.4-1.2c0,0-0.3-0.3-0.6-0.3c0,0-0.6-0.2-0.2-0.7l1.1-1.1c0,0,0.2-0.2,0-0.5
	l-1.1-1.1c0,0-0.2-0.3,0-0.5c0,0,0-0.1,0.4-0.1c0.3,0,1-0.4,0.4-1.3c0,0-0.6-0.5-1.1,0c0,0-0.2,0.1-0.2,0.5c0,0.4-0.4,0.5-0.7,0.2
	l-1.1-1.1c0,0-0.2-0.2-0.5,0l-1.1,1c0,0-0.3,0.3-0.5,0.1c-0.3-0.2-0.2-0.4-0.2-0.6c-0.1-0.1-0.1-0.4-0.5-0.5c-0.4-0.1-1.1,0.4-1,1
	c0,0,0.1,0.5,0.6,0.5c0,0,0.3,0,0.4,0.2S131.8,45.2,131.6,45.3z"/>
<path class="st7" d="M145.1,53.3l-1.1,1c0,0-0.2,0.2,0,0.5l1.1,1.1c0,0,0.3,0.3,0.1,0.5c0,0-0.1,0.2-0.4,0.2c-0.3,0-0.9,0.3-0.6,1
	c0.2,0.7,1.2,0.8,1.4-0.1c0,0,0-0.3,0.2-0.4c0,0,0.2-0.2,0.5,0l1.1,1.1c0,0,0.2,0.2,0.4,0l1.1-1.1c0,0,0.2-0.2,0.5-0.1
	c0,0,0.2,0.1,0.2,0.4c0,0,0.1,0.8,1,0.6c0,0,0.9-0.4,0.4-1.2c0,0-0.3-0.3-0.6-0.3c0,0-0.6-0.2-0.2-0.7l1.1-1.1c0,0,0.2-0.2,0-0.5
	l-1.1-1.1c0,0-0.2-0.3,0-0.5c0,0,0-0.1,0.4-0.1c0.3,0,1-0.4,0.4-1.3c0,0-0.6-0.5-1.1,0c0,0-0.2,0.1-0.2,0.5c0,0.4-0.4,0.5-0.7,0.2
	l-1.1-1.1c0,0-0.2-0.2-0.5,0l-1.1,1c0,0-0.3,0.3-0.5,0.1c-0.3-0.2-0.2-0.4-0.2-0.6c-0.1-0.1-0.1-0.4-0.5-0.5c-0.4-0.1-1.1,0.4-1,1
	c0,0,0.1,0.5,0.6,0.5c0,0,0.3,0,0.4,0.2C145.4,52.8,145.3,53.1,145.1,53.3z"/>
<path class="st6" d="M141.3,63.1l-1.1,1c0,0-0.2,0.2,0,0.5l1.1,1.1c0,0,0.3,0.3,0.1,0.5c0,0-0.1,0.2-0.4,0.2c-0.3,0-0.9,0.3-0.6,1
	c0.2,0.7,1.2,0.8,1.4-0.1c0,0,0-0.3,0.2-0.4c0,0,0.2-0.2,0.5,0l1.1,1.1c0,0,0.2,0.2,0.4,0l1.1-1.1c0,0,0.2-0.2,0.5-0.1
	c0,0,0.2,0.1,0.2,0.4c0,0,0.1,0.8,1,0.6c0,0,0.9-0.4,0.4-1.2c0,0-0.3-0.3-0.6-0.3c0,0-0.6-0.2-0.2-0.7l1.1-1.1c0,0,0.2-0.2,0-0.5
	l-1.1-1.1c0,0-0.2-0.3,0-0.5c0,0,0-0.1,0.4-0.1c0.3,0,1-0.4,0.4-1.3c0,0-0.6-0.5-1.1,0c0,0-0.2,0.1-0.2,0.5c0,0.4-0.4,0.5-0.7,0.2
	l-1.1-1.1c0,0-0.2-0.2-0.5,0l-1.1,1c0,0-0.3,0.3-0.5,0.1c-0.3-0.2-0.2-0.4-0.2-0.6c-0.1-0.1-0.1-0.4-0.5-0.5c-0.4-0.1-1.1,0.4-1,1
	c0,0,0.1,0.5,0.6,0.5c0,0,0.3,0,0.4,0.2S141.5,62.9,141.3,63.1z"/>
<path class="st7" d="M151.9,103.4l-1.1,1c0,0-0.2,0.2,0,0.5l1.1,1.1c0,0,0.3,0.3,0.1,0.5c0,0-0.1,0.2-0.4,0.2c-0.3,0-0.9,0.3-0.6,1
	c0.2,0.7,1.2,0.8,1.4-0.1c0,0,0-0.3,0.2-0.4c0,0,0.2-0.2,0.5,0l1.1,1.1c0,0,0.2,0.2,0.4,0l1.1-1.1c0,0,0.2-0.2,0.5-0.1
	c0,0,0.2,0.1,0.2,0.4c0,0,0.1,0.8,1,0.6c0,0,0.9-0.4,0.4-1.2c0,0-0.3-0.3-0.6-0.3c0,0-0.6-0.2-0.2-0.7l1.1-1.1c0,0,0.2-0.2,0-0.5
	l-1.1-1.1c0,0-0.2-0.3,0-0.5c0,0,0-0.1,0.4-0.1c0.3,0,1-0.4,0.4-1.3c0,0-0.6-0.5-1.1,0c0,0-0.2,0.1-0.2,0.5c0,0.4-0.4,0.5-0.7,0.2
	l-1.1-1.1c0,0-0.2-0.2-0.5,0l-1.1,1c0,0-0.3,0.3-0.5,0.1c-0.3-0.2-0.2-0.4-0.2-0.6c-0.1-0.1-0.1-0.4-0.5-0.5c-0.4-0.1-1.1,0.4-1,1
	c0,0,0.1,0.5,0.6,0.5c0,0,0.3,0,0.4,0.2S152.1,103.2,151.9,103.4z"/>
<path class="st6" d="M103.7,59l-1.1,1c0,0-0.2,0.2,0,0.5l1.1,1.1c0,0,0.3,0.3,0.1,0.5c0,0-0.1,0.2-0.4,0.2s-0.9,0.3-0.6,1
	s1.2,0.8,1.4-0.1c0,0,0-0.3,0.2-0.4c0,0,0.2-0.2,0.5,0L106,64c0,0,0.2,0.2,0.4,0l1.1-1.1c0,0,0.2-0.2,0.5-0.1c0,0,0.2,0.1,0.2,0.4
	c0,0,0.1,0.8,1,0.6c0,0,0.9-0.4,0.4-1.2c0,0-0.3-0.3-0.6-0.3c0,0-0.6-0.2-0.2-0.7l1.1-1.1c0,0,0.2-0.2,0-0.5l-1.1-1.1
	c0,0-0.2-0.3,0-0.5c0,0,0-0.1,0.4-0.1s1-0.4,0.4-1.3c0,0-0.6-0.5-1.1,0c0,0-0.2,0.1-0.2,0.5c0,0.4-0.4,0.5-0.7,0.2l-1.1-1.1
	c0,0-0.2-0.2-0.5,0l-1.1,1c0,0-0.3,0.3-0.5,0.1s-0.2-0.4-0.2-0.6c-0.1-0.1-0.1-0.4-0.5-0.5c-0.4-0.1-1.1,0.4-1,1
	c0,0,0.1,0.5,0.6,0.5c0,0,0.3,0,0.4,0.2S103.9,58.8,103.7,59z"/>
<path class="st6" d="M130.9,96.8l-1.1,1c0,0-0.2,0.2,0,0.5l1.1,1.1c0,0,0.3,0.3,0.1,0.5c0,0-0.1,0.2-0.4,0.2c-0.3,0-0.9,0.3-0.6,1
	c0.2,0.7,1.2,0.8,1.4-0.1c0,0,0-0.3,0.2-0.4c0,0,0.2-0.2,0.5,0l1.1,1.1c0,0,0.2,0.2,0.4,0l1.1-1.1c0,0,0.2-0.2,0.5-0.1
	c0,0,0.2,0.1,0.2,0.4c0,0,0.1,0.8,1,0.6c0,0,0.9-0.4,0.4-1.2c0,0-0.3-0.3-0.6-0.3c0,0-0.6-0.2-0.2-0.7l1.1-1.1c0,0,0.2-0.2,0-0.5
	l-1.1-1.1c0,0-0.2-0.3,0-0.5c0,0,0-0.1,0.4-0.1c0.3,0,1-0.4,0.4-1.3c0,0-0.6-0.5-1.1,0c0,0-0.2,0.1-0.2,0.5c0,0.4-0.4,0.5-0.7,0.2
	l-1.1-1.1c0,0-0.2-0.2-0.5,0l-1.1,1c0,0-0.3,0.3-0.5,0.1c-0.3-0.2-0.2-0.4-0.2-0.6c-0.1-0.1-0.1-0.4-0.5-0.5c-0.4-0.1-1.1,0.4-1,1
	c0,0,0.1,0.5,0.6,0.5c0,0,0.3,0,0.4,0.2S131.1,96.7,130.9,96.8z"/>
<path class="st7" d="M139,80.8l-1.1,1c0,0-0.2,0.2,0,0.5l1.1,1.1c0,0,0.3,0.3,0.1,0.5c0,0-0.1,0.2-0.4,0.2c-0.3,0-0.9,0.3-0.6,1
	c0.2,0.7,1.2,0.8,1.4-0.1c0,0,0-0.3,0.2-0.4c0,0,0.2-0.2,0.5,0l1.1,1.1c0,0,0.2,0.2,0.4,0l1.1-1.1c0,0,0.2-0.2,0.5-0.1
	c0,0,0.2,0.1,0.2,0.4c0,0,0.1,0.8,1,0.6c0,0,0.9-0.4,0.4-1.2c0,0-0.3-0.3-0.6-0.3c0,0-0.6-0.2-0.2-0.7l1.1-1.1c0,0,0.2-0.2,0-0.5
	l-1.1-1.1c0,0-0.2-0.3,0-0.5c0,0,0-0.1,0.4-0.1s1-0.4,0.4-1.3c0,0-0.6-0.5-1.1,0c0,0-0.2,0.1-0.2,0.5c0,0.4-0.4,0.5-0.7,0.2
	l-1.1-1.1c0,0-0.2-0.2-0.5,0l-1.1,1c0,0-0.3,0.3-0.5,0.1c-0.3-0.2-0.2-0.4-0.2-0.6c-0.1-0.1-0.1-0.4-0.5-0.5c-0.4-0.1-1.1,0.4-1,1
	c0,0,0.1,0.5,0.6,0.5c0,0,0.3,0,0.4,0.2S139.2,80.7,139,80.8z"/>
<path class="st6" d="M135.3,89.4l-1.1,1c0,0-0.2,0.2,0,0.5l1.1,1.1c0,0,0.3,0.3,0.1,0.5c0,0-0.1,0.2-0.4,0.2c-0.3,0-0.9,0.3-0.6,1
	c0.2,0.7,1.2,0.8,1.4-0.1c0,0,0-0.3,0.2-0.4c0,0,0.2-0.2,0.5,0l1.1,1.1c0,0,0.2,0.2,0.4,0l1.1-1.1c0,0,0.2-0.2,0.5-0.1
	c0,0,0.2,0.1,0.2,0.4c0,0,0.1,0.8,1,0.6c0,0,0.9-0.4,0.4-1.2c0,0-0.3-0.3-0.6-0.3c0,0-0.6-0.2-0.2-0.7l1.1-1.1c0,0,0.2-0.2,0-0.5
	l-1.1-1.1c0,0-0.2-0.3,0-0.5c0,0,0-0.1,0.4-0.1c0.3,0,1-0.4,0.4-1.3c0,0-0.6-0.5-1.1,0c0,0-0.2,0.1-0.2,0.5c0,0.4-0.4,0.5-0.7,0.2
	l-1.1-1.1c0,0-0.2-0.2-0.5,0l-1.1,1c0,0-0.3,0.3-0.5,0.1c-0.3-0.2-0.2-0.4-0.2-0.6c-0.1-0.1-0.1-0.4-0.5-0.5c-0.4-0.1-1.1,0.4-1,1
	c0,0,0.1,0.5,0.6,0.5c0,0,0.3,0,0.4,0.2C135.6,88.9,135.5,89.2,135.3,89.4z"/>
<path class="st7" d="M137.1,95.8l-1.1,1c0,0-0.2,0.2,0,0.5l1.1,1.1c0,0,0.3,0.3,0.1,0.5c0,0-0.1,0.2-0.4,0.2c-0.3,0-0.9,0.3-0.6,1
	c0.2,0.7,1.2,0.8,1.4-0.1c0,0,0-0.3,0.2-0.4c0,0,0.2-0.2,0.5,0l1.1,1.1c0,0,0.2,0.2,0.4,0l1.1-1.1c0,0,0.2-0.2,0.5-0.1
	c0,0,0.2,0.1,0.2,0.4c0,0,0.1,0.8,1,0.6c0,0,0.9-0.4,0.4-1.2c0,0-0.3-0.3-0.6-0.3c0,0-0.6-0.2-0.2-0.7l1.1-1.1c0,0,0.2-0.2,0-0.5
	l-1.1-1.1c0,0-0.2-0.3,0-0.5c0,0,0-0.1,0.4-0.1c0.3,0,1-0.4,0.4-1.3c0,0-0.6-0.5-1.1,0c0,0-0.2,0.1-0.2,0.5c0,0.4-0.4,0.5-0.7,0.2
	l-1.1-1.1c0,0-0.2-0.2-0.5,0l-1.1,1c0,0-0.3,0.3-0.5,0.1c-0.3-0.2-0.2-0.4-0.2-0.6c-0.1-0.1-0.1-0.4-0.5-0.5c-0.4-0.1-1.1,0.4-1,1
	c0,0,0.1,0.5,0.6,0.5c0,0,0.3,0,0.4,0.2S137.3,95.6,137.1,95.8z"/>
<path class="st7" d="M129.1,53.3l-1.1,1c0,0-0.2,0.2,0,0.5l1.1,1.1c0,0,0.3,0.3,0.1,0.5c0,0-0.1,0.2-0.4,0.2c-0.3,0-0.9,0.3-0.6,1
	c0.2,0.7,1.2,0.8,1.4-0.1c0,0,0-0.3,0.2-0.4c0,0,0.2-0.2,0.5,0l1.1,1.1c0,0,0.2,0.2,0.4,0l1.1-1.1c0,0,0.2-0.2,0.5-0.1
	c0,0,0.2,0.1,0.2,0.4c0,0,0.1,0.8,1,0.6c0,0,0.9-0.4,0.4-1.2c0,0-0.3-0.3-0.6-0.3c0,0-0.6-0.2-0.2-0.7l1.1-1.1c0,0,0.2-0.2,0-0.5
	l-1.1-1.1c0,0-0.2-0.3,0-0.5c0,0,0-0.1,0.4-0.1c0.3,0,1-0.4,0.4-1.3c0,0-0.6-0.5-1.1,0c0,0-0.2,0.1-0.2,0.5c0,0.4-0.4,0.5-0.7,0.2
	L132,51c0,0-0.2-0.2-0.5,0l-1.1,1c0,0-0.3,0.3-0.5,0.1c-0.3-0.2-0.2-0.4-0.2-0.6s-0.1-0.4-0.5-0.5s-1.1,0.4-1,1c0,0,0.1,0.5,0.6,0.5
	c0,0,0.3,0,0.4,0.2S129.3,53.2,129.1,53.3z"/>
<path class="st6" d="M99.2,44.5l-0.4,1.4c0,0-0.1,0.3,0.2,0.4l1.5,0.4c0,0,0.4,0.1,0.3,0.4c0,0,0,0.2-0.3,0.3
	c-0.2,0.1-0.6,0.7-0.1,1.2c0.5,0.5,1.5,0.1,1.2-0.8c0,0-0.1-0.3-0.1-0.5c0,0,0.1-0.3,0.5-0.2l1.5,0.4c0,0,0.3,0.1,0.4-0.2l0.5-1.5
	c0,0,0.1-0.3,0.4-0.3c0,0,0.2,0,0.4,0.3c0,0,0.5,0.7,1.1,0c0,0,0.6-0.8-0.3-1.2c0,0-0.4-0.1-0.6,0.1c0,0-0.6,0.2-0.5-0.5l0.4-1.5
	c0,0,0.1-0.3-0.2-0.4l-1.5-0.5c0,0-0.3-0.2-0.2-0.5c0,0,0-0.1,0.2-0.3s0.7-0.9-0.2-1.3c0,0-0.7-0.2-0.9,0.5c0,0-0.1,0.2,0.1,0.5
	c0.1,0.4-0.1,0.6-0.5,0.5l-1.5-0.4c0,0-0.3,0-0.4,0.2l-0.4,1.4c0,0-0.1,0.4-0.4,0.4c-0.3,0-0.4-0.3-0.5-0.4
	c-0.1-0.1-0.3-0.3-0.7-0.2c-0.4,0.1-0.8,0.9-0.4,1.3c0,0,0.3,0.3,0.8,0.2c0,0,0.3-0.1,0.5-0.1C99.3,43.9,99.3,44.2,99.2,44.5z"/>
<path class="st7" d="M116.1,54.7l-0.4,1.4c0,0-0.1,0.3,0.2,0.4l1.5,0.4c0,0,0.4,0.1,0.3,0.4c0,0,0,0.2-0.3,0.3
	c-0.2,0.1-0.6,0.7-0.1,1.2c0.5,0.5,1.5,0.1,1.2-0.8c0,0-0.1-0.3-0.1-0.5c0,0,0.1-0.3,0.5-0.2l1.5,0.4c0,0,0.3,0.1,0.4-0.2l0.5-1.5
	c0,0,0.1-0.3,0.4-0.3c0,0,0.2,0,0.4,0.3c0,0,0.5,0.7,1.1,0c0,0,0.6-0.8-0.3-1.2c0,0-0.4-0.1-0.6,0.1c0,0-0.6,0.2-0.5-0.5l0.4-1.5
	c0,0,0.1-0.3-0.2-0.4l-1.5-0.5c0,0-0.3-0.2-0.2-0.5c0,0,0-0.1,0.2-0.3c0.3-0.2,0.7-0.9-0.2-1.3c0,0-0.7-0.2-0.9,0.5
	c0,0-0.1,0.2,0.1,0.5c0.1,0.4-0.1,0.6-0.5,0.5l-1.5-0.4c0,0-0.3,0-0.4,0.2l-0.4,1.4c0,0-0.1,0.4-0.4,0.4s-0.4-0.3-0.5-0.4
	c-0.1-0.1-0.3-0.3-0.7-0.2c-0.4,0.1-0.8,0.9-0.4,1.3c0,0,0.3,0.3,0.8,0.2c0,0,0.3-0.1,0.5-0.1S116.2,54.5,116.1,54.7z"/>
<path class="st6" d="M71.4,66.9L71,68.3c0,0-0.1,0.3,0.2,0.4l1.5,0.4c0,0,0.4,0.1,0.3,0.4c0,0,0,0.2-0.3,0.3
	c-0.2,0.1-0.6,0.7-0.1,1.2c0.5,0.5,1.5,0.1,1.2-0.8c0,0-0.1-0.3-0.1-0.5c0,0,0.1-0.3,0.5-0.2l1.5,0.4c0,0,0.3,0.1,0.4-0.2l0.5-1.5
	c0,0,0.1-0.3,0.4-0.3c0,0,0.2,0,0.4,0.3c0,0,0.5,0.7,1.1,0c0,0,0.6-0.8-0.3-1.2c0,0-0.4-0.1-0.6,0.1c0,0-0.6,0.2-0.5-0.5l0.4-1.5
	c0,0,0.1-0.3-0.2-0.4l-1.5-0.5c0,0-0.3-0.2-0.2-0.5c0,0,0-0.1,0.2-0.3c0.3-0.2,0.7-0.9-0.2-1.3c0,0-0.7-0.2-0.9,0.5
	c0,0-0.1,0.2,0.1,0.5c0.1,0.4-0.1,0.6-0.5,0.5l-1.5-0.4c0,0-0.3,0-0.4,0.2L72,65.1c0,0-0.1,0.4-0.4,0.4c-0.3,0-0.4-0.3-0.5-0.4
	c-0.1-0.1-0.3-0.3-0.7-0.2C70,65,69.6,65.8,70,66.2c0,0,0.3,0.3,0.8,0.2c0,0,0.3-0.1,0.5-0.1S71.5,66.7,71.4,66.9z"/>
<path class="st6" d="M114.2,64.5l-0.4,1.4c0,0-0.1,0.3,0.2,0.4l1.5,0.4c0,0,0.4,0.1,0.3,0.4c0,0,0,0.2-0.3,0.3
	c-0.2,0.1-0.6,0.7-0.1,1.2c0.5,0.5,1.5,0.1,1.2-0.8c0,0-0.1-0.3-0.1-0.5c0,0,0.1-0.3,0.5-0.2l1.5,0.4c0,0,0.3,0.1,0.4-0.2l0.5-1.5
	c0,0,0.1-0.3,0.4-0.3c0,0,0.2,0,0.4,0.3c0,0,0.5,0.7,1.1,0c0,0,0.6-0.8-0.3-1.2c0,0-0.4-0.1-0.6,0.1c0,0-0.6,0.2-0.5-0.5l0.4-1.5
	c0,0,0.1-0.3-0.2-0.4l-1.5-0.5c0,0-0.3-0.2-0.2-0.5c0,0,0-0.1,0.2-0.3s0.7-0.9-0.2-1.3c0,0-0.7-0.2-0.9,0.5c0,0-0.1,0.2,0.1,0.5
	c0.1,0.4-0.1,0.6-0.5,0.5l-1.5-0.4c0,0-0.3,0-0.4,0.2l-0.4,1.4c0,0-0.1,0.4-0.4,0.4s-0.4-0.3-0.5-0.4c-0.1-0.1-0.3-0.3-0.7-0.2
	c-0.4,0.1-0.8,0.9-0.4,1.3c0,0,0.3,0.3,0.8,0.2c0,0,0.3-0.1,0.5-0.1C114.2,64,114.3,64.3,114.2,64.5z"/>
<path class="st7" d="M50.3,85.5l-0.4,1.4c0,0-0.1,0.3,0.2,0.4l1.5,0.4c0,0,0.4,0.1,0.3,0.4c0,0,0,0.2-0.3,0.3s-0.6,0.7-0.1,1.2
	c0.5,0.5,1.5,0.1,1.2-0.8c0,0-0.1-0.3-0.1-0.5c0,0,0.1-0.3,0.5-0.2l1.5,0.4c0,0,0.3,0.1,0.4-0.2l0.5-1.5c0,0,0.1-0.3,0.4-0.3
	c0,0,0.2,0,0.4,0.3c0,0,0.5,0.7,1.1,0c0,0,0.6-0.8-0.3-1.2c0,0-0.4-0.1-0.6,0.1c0,0-0.6,0.2-0.5-0.5l0.4-1.5c0,0,0.1-0.3-0.2-0.4
	l-1.5-0.5c0,0-0.3-0.2-0.2-0.5c0,0,0-0.1,0.2-0.3c0.3-0.2,0.7-0.9-0.2-1.3c0,0-0.7-0.2-0.9,0.5c0,0-0.1,0.2,0.1,0.5
	c0.1,0.4-0.1,0.6-0.5,0.5L51.7,82c0,0-0.3,0-0.4,0.2l-0.4,1.4c0,0-0.1,0.4-0.4,0.4c-0.3,0-0.4-0.3-0.5-0.4s-0.3-0.3-0.7-0.2
	c-0.4,0.1-0.8,0.9-0.4,1.3c0,0,0.3,0.3,0.8,0.2c0,0,0.3-0.1,0.5-0.1C50.4,84.9,50.4,85.2,50.3,85.5z"/>
<path class="st7" d="M126.9,73.2l-0.4,1.4c0,0-0.1,0.3,0.2,0.4l1.5,0.4c0,0,0.4,0.1,0.3,0.4c0,0,0,0.2-0.3,0.3
	c-0.2,0.1-0.6,0.7-0.1,1.2c0.5,0.5,1.5,0.1,1.2-0.8c0,0-0.1-0.3-0.1-0.5c0,0,0.1-0.3,0.5-0.2l1.5,0.4c0,0,0.3,0.1,0.4-0.2l0.5-1.5
	c0,0,0.1-0.3,0.4-0.3c0,0,0.2,0,0.4,0.3c0,0,0.5,0.7,1.1,0c0,0,0.6-0.8-0.3-1.2c0,0-0.4-0.1-0.6,0.1c0,0-0.6,0.2-0.5-0.5l0.4-1.5
	c0,0,0.1-0.3-0.2-0.4l-1.5-0.5c0,0-0.3-0.2-0.2-0.5c0,0,0-0.1,0.2-0.3c0.3-0.2,0.7-0.9-0.2-1.3c0,0-0.7-0.2-0.9,0.5
	c0,0-0.1,0.2,0.1,0.5c0.1,0.4-0.1,0.6-0.5,0.5l-1.5-0.4c0,0-0.3,0-0.4,0.2l-0.4,1.4c0,0-0.1,0.4-0.4,0.4c-0.3,0-0.4-0.3-0.5-0.4
	c-0.1-0.1-0.3-0.3-0.7-0.2c-0.4,0.1-0.8,0.9-0.4,1.3c0,0,0.3,0.3,0.8,0.2c0,0,0.3-0.1,0.5-0.1S127,73,126.9,73.2z"/>
<path class="st6" d="M91.7,54.5l-0.4,1.4c0,0-0.1,0.3,0.2,0.4l1.5,0.4c0,0,0.4,0.1,0.3,0.4c0,0,0,0.2-0.3,0.3
	c-0.2,0.1-0.6,0.7-0.1,1.2c0.5,0.5,1.5,0.1,1.2-0.8c0,0-0.1-0.3-0.1-0.5c0,0,0.1-0.3,0.5-0.2l1.5,0.4c0,0,0.3,0.1,0.4-0.2l0.5-1.5
	c0,0,0.1-0.3,0.4-0.3c0,0,0.2,0,0.4,0.3c0,0,0.5,0.7,1.1,0c0,0,0.6-0.8-0.3-1.2c0,0-0.4-0.1-0.6,0.1c0,0-0.6,0.2-0.5-0.5l0.4-1.5
	c0,0,0.1-0.3-0.2-0.4l-1.5-0.5c0,0-0.3-0.2-0.2-0.5c0,0,0-0.1,0.2-0.3s0.7-0.9-0.2-1.3c0,0-0.7-0.2-0.9,0.5c0,0-0.1,0.2,0.1,0.5
	c0.1,0.4-0.1,0.6-0.5,0.5L93.1,51c0,0-0.3,0-0.4,0.2l-0.4,1.4c0,0-0.1,0.4-0.4,0.4c-0.3,0-0.4-0.3-0.5-0.4c-0.1-0.1-0.3-0.3-0.7-0.2
	c-0.4,0.1-0.8,0.9-0.4,1.3c0,0,0.3,0.3,0.8,0.2c0,0,0.3-0.1,0.5-0.1C91.7,53.9,91.8,54.2,91.7,54.5z"/>
<path class="st6" d="M105.3,46.7l-0.4,1.4c0,0-0.1,0.3,0.2,0.4l1.5,0.4c0,0,0.4,0.1,0.3,0.4c0,0,0,0.2-0.3,0.3
	c-0.2,0.1-0.6,0.7-0.1,1.2s1.5,0.1,1.2-0.8c0,0-0.1-0.3-0.1-0.5c0,0,0.1-0.3,0.5-0.2l1.5,0.4c0,0,0.3,0.1,0.4-0.2l0.5-1.5
	c0,0,0.1-0.3,0.4-0.3c0,0,0.2,0,0.4,0.3c0,0,0.5,0.7,1.1,0c0,0,0.6-0.8-0.3-1.2c0,0-0.4-0.1-0.6,0.1c0,0-0.6,0.2-0.5-0.5l0.4-1.5
	c0,0,0.1-0.3-0.2-0.4l-1.5-0.5c0,0-0.3-0.2-0.2-0.5c0,0,0-0.1,0.2-0.3s0.7-0.9-0.2-1.3c0,0-0.7-0.2-0.9,0.5c0,0-0.1,0.2,0.1,0.5
	c0.1,0.4-0.1,0.6-0.5,0.5l-1.5-0.4c0,0-0.3,0-0.4,0.2l-0.4,1.4c0,0-0.1,0.4-0.4,0.4s-0.4-0.3-0.5-0.4c-0.1-0.1-0.3-0.3-0.7-0.2
	c-0.4,0.1-0.8,0.9-0.4,1.3c0,0,0.3,0.3,0.8,0.2c0,0,0.3-0.1,0.5-0.1S105.4,46.4,105.3,46.7z"/>
<path class="st7" d="M138.7,71.8l-0.4,1.4c0,0-0.1,0.3,0.2,0.4l1.5,0.4c0,0,0.4,0.1,0.3,0.4c0,0,0,0.2-0.3,0.3
	c-0.2,0.1-0.6,0.7-0.1,1.2c0.5,0.5,1.5,0.1,1.2-0.8c0,0-0.1-0.3-0.1-0.5c0,0,0.1-0.3,0.5-0.2l1.5,0.4c0,0,0.3,0.1,0.4-0.2l0.5-1.5
	c0,0,0.1-0.3,0.4-0.3c0,0,0.2,0,0.4,0.3c0,0,0.5,0.7,1.1,0c0,0,0.6-0.8-0.3-1.2c0,0-0.4-0.1-0.6,0.1c0,0-0.6,0.2-0.5-0.5l0.4-1.5
	c0,0,0.1-0.3-0.2-0.4l-1.5-0.5c0,0-0.3-0.2-0.2-0.5c0,0,0-0.1,0.2-0.3c0.3-0.2,0.7-0.9-0.2-1.3c0,0-0.7-0.2-0.9,0.5
	c0,0-0.1,0.2,0.1,0.5s-0.1,0.6-0.5,0.5l-1.5-0.4c0,0-0.3,0-0.4,0.2l-0.4,1.4c0,0-0.1,0.4-0.4,0.4c-0.3,0-0.4-0.3-0.5-0.4
	s-0.3-0.3-0.7-0.2s-0.8,0.9-0.4,1.3c0,0,0.3,0.3,0.8,0.2c0,0,0.3-0.1,0.5-0.1S138.8,71.6,138.7,71.8z"/>
<path class="st7" d="M80.7,45.4l-0.4,1.4c0,0-0.1,0.3,0.2,0.4l1.5,0.4c0,0,0.4,0.1,0.3,0.4c0,0,0,0.2-0.3,0.3
	c-0.2,0.1-0.6,0.7-0.1,1.2c0.5,0.5,1.5,0.1,1.2-0.8c0,0-0.1-0.3-0.1-0.5c0,0,0.1-0.3,0.5-0.2l1.5,0.4c0,0,0.3,0.1,0.4-0.2l0.5-1.5
	c0,0,0.1-0.3,0.4-0.3c0,0,0.2,0,0.4,0.3c0,0,0.5,0.7,1.1,0c0,0,0.6-0.8-0.3-1.2c0,0-0.4-0.1-0.6,0.1c0,0-0.6,0.2-0.5-0.5l0.4-1.5
	c0,0,0.1-0.3-0.2-0.4l-1.5-0.5c0,0-0.3-0.2-0.2-0.5c0,0,0-0.1,0.2-0.3s0.7-0.9-0.2-1.3c0,0-0.7-0.2-0.9,0.5c0,0-0.1,0.2,0.1,0.5
	c0.1,0.4-0.1,0.6-0.5,0.5l-1.5-0.4c0,0-0.3,0-0.4,0.2l-0.4,1.4c0,0-0.1,0.4-0.4,0.4c-0.3,0-0.4-0.3-0.5-0.4
	c-0.1-0.1-0.3-0.3-0.7-0.2c-0.4,0.1-0.8,0.9-0.4,1.3c0,0,0.3,0.3,0.8,0.2c0,0,0.3-0.1,0.5-0.1C80.7,44.8,80.8,45.1,80.7,45.4z"/>
<path class="st7" d="M126.9,84.1l-0.4,1.4c0,0-0.1,0.3,0.2,0.4l1.5,0.4c0,0,0.4,0.1,0.3,0.4c0,0,0,0.2-0.3,0.3
	c-0.2,0.1-0.6,0.7-0.1,1.2c0.5,0.5,1.5,0.1,1.2-0.8c0,0-0.1-0.3-0.1-0.5c0,0,0.1-0.3,0.5-0.2l1.5,0.4c0,0,0.3,0.1,0.4-0.2l0.5-1.5
	c0,0,0.1-0.3,0.4-0.3c0,0,0.2,0,0.4,0.3c0,0,0.5,0.7,1.1,0c0,0,0.6-0.8-0.3-1.2c0,0-0.4-0.1-0.6,0.1c0,0-0.6,0.2-0.5-0.5l0.4-1.5
	c0,0,0.1-0.3-0.2-0.4l-1.5-0.5c0,0-0.3-0.2-0.2-0.5c0,0,0-0.1,0.2-0.3c0.3-0.2,0.7-0.9-0.2-1.3c0,0-0.7-0.2-0.9,0.5
	c0,0-0.1,0.2,0.1,0.5c0.1,0.4-0.1,0.6-0.5,0.5l-1.5-0.4c0,0-0.3,0-0.4,0.2l-0.4,1.4c0,0-0.1,0.4-0.4,0.4c-0.3,0-0.4-0.3-0.5-0.4
	c-0.1-0.1-0.3-0.3-0.7-0.2c-0.4,0.1-0.8,0.9-0.4,1.3c0,0,0.3,0.3,0.8,0.2c0,0,0.3-0.1,0.5-0.1C126.9,83.5,127,83.8,126.9,84.1z"/>
<path class="st7" d="M60.6,57.8l-0.4,1.4c0,0-0.1,0.3,0.2,0.4l1.5,0.4c0,0,0.4,0.1,0.3,0.4c0,0,0,0.2-0.3,0.3s-0.6,0.7-0.1,1.2
	c0.5,0.5,1.5,0.1,1.2-0.8c0,0-0.1-0.3-0.1-0.5c0,0,0.1-0.3,0.5-0.2l1.5,0.4c0,0,0.3,0.1,0.4-0.2l0.5-1.5c0,0,0.1-0.3,0.4-0.3
	c0,0,0.2,0,0.4,0.3c0,0,0.5,0.7,1.1,0c0,0,0.6-0.8-0.3-1.2c0,0-0.4-0.1-0.6,0.1c0,0-0.6,0.2-0.5-0.5l0.4-1.5c0,0,0.1-0.3-0.2-0.4
	l-1.5-0.5c0,0-0.3-0.2-0.2-0.5c0,0,0-0.1,0.2-0.3s0.7-0.9-0.2-1.3c0,0-0.7-0.2-0.9,0.5c0,0-0.1,0.2,0.1,0.5c0.1,0.4-0.1,0.6-0.5,0.5
	L62,54.4c0,0-0.3,0-0.4,0.2L61.2,56c0,0-0.1,0.4-0.4,0.4c-0.3,0-0.4-0.3-0.5-0.4s-0.3-0.3-0.7-0.2c-0.4,0.1-0.8,0.9-0.4,1.3
	c0,0,0.3,0.3,0.8,0.2c0,0,0.3-0.1,0.5-0.1C60.7,57.3,60.7,57.6,60.6,57.8z"/>
<path class="st6" d="M83.4,62.4L83,63.8c0,0-0.1,0.3,0.2,0.4l1.5,0.4c0,0,0.4,0.1,0.3,0.4c0,0,0,0.2-0.3,0.3
	c-0.2,0.1-0.6,0.7-0.1,1.2c0.5,0.5,1.5,0.1,1.2-0.8c0,0-0.1-0.3-0.1-0.5c0,0,0.1-0.3,0.5-0.2l1.5,0.4c0,0,0.3,0.1,0.4-0.2l0.5-1.5
	c0,0,0.1-0.3,0.4-0.3c0,0,0.2,0,0.4,0.3c0,0,0.5,0.7,1.1,0c0,0,0.6-0.8-0.3-1.2c0,0-0.4-0.1-0.6,0.1c0,0-0.6,0.2-0.5-0.5l0.4-1.5
	c0,0,0.1-0.3-0.2-0.4l-1.5-0.5c0,0-0.3-0.2-0.2-0.5c0,0,0-0.1,0.2-0.3s0.7-0.9-0.2-1.3c0,0-0.7-0.2-0.9,0.5c0,0-0.1,0.2,0.1,0.5
	s-0.1,0.6-0.5,0.5l-1.5-0.4c0,0-0.3,0-0.4,0.2l-0.4,1.4c0,0-0.1,0.4-0.4,0.4c-0.3,0-0.4-0.3-0.5-0.4c-0.1-0.1-0.3-0.3-0.7-0.2
	c-0.4,0.1-0.8,0.9-0.4,1.3c0,0,0.3,0.3,0.8,0.2c0,0,0.3-0.1,0.5-0.1C83.4,61.8,83.5,62.1,83.4,62.4z"/>
<path class="st7" d="M95.7,61.1l-0.4,1.4c0,0-0.1,0.3,0.2,0.4l1.5,0.4c0,0,0.4,0.1,0.3,0.4c0,0,0,0.2-0.3,0.3
	c-0.2,0.1-0.6,0.7-0.1,1.2c0.5,0.5,1.5,0.1,1.2-0.8c0,0-0.1-0.3-0.1-0.5c0,0,0.1-0.3,0.5-0.2l1.5,0.4c0,0,0.3,0.1,0.4-0.2l0.5-1.5
	c0,0,0.1-0.3,0.4-0.3c0,0,0.2,0,0.4,0.3c0,0,0.5,0.7,1.1,0c0,0,0.6-0.8-0.3-1.2c0,0-0.4-0.1-0.6,0.1c0,0-0.6,0.2-0.5-0.5l0.4-1.5
	c0,0,0.1-0.3-0.2-0.4l-1.5-0.5c0,0-0.3-0.2-0.2-0.5c0,0,0-0.1,0.2-0.3s0.7-0.9-0.2-1.3c0,0-0.7-0.2-0.9,0.5c0,0-0.1,0.2,0.1,0.5
	c0.1,0.4-0.1,0.6-0.5,0.5L97,57.6c0,0-0.3,0-0.4,0.2l-0.4,1.4c0,0-0.1,0.4-0.4,0.4c-0.3,0-0.4-0.3-0.5-0.4c-0.1-0.1-0.3-0.3-0.7-0.2
	c-0.4,0.1-0.8,0.9-0.4,1.3c0,0,0.3,0.3,0.8,0.2c0,0,0.3-0.1,0.5-0.1C95.7,60.6,95.8,60.9,95.7,61.1z"/>
<path class="st6" d="M89.8,44.2l-0.4,1.4c0,0-0.1,0.3,0.2,0.4l1.5,0.4c0,0,0.4,0.1,0.3,0.4c0,0,0,0.2-0.3,0.3
	c-0.2,0.1-0.6,0.7-0.1,1.2c0.5,0.5,1.5,0.1,1.2-0.8c0,0-0.1-0.3-0.1-0.5c0,0,0.1-0.3,0.5-0.2l1.5,0.4c0,0,0.3,0.1,0.4-0.2l0.5-1.5
	c0,0,0.1-0.3,0.4-0.3c0,0,0.2,0,0.4,0.3c0,0,0.5,0.7,1.1,0c0,0,0.6-0.8-0.3-1.2c0,0-0.4-0.1-0.6,0.1c0,0-0.6,0.2-0.5-0.5l0.4-1.5
	c0,0,0.1-0.3-0.2-0.4l-1.5-0.5c0,0-0.3-0.2-0.2-0.5c0,0,0-0.1,0.2-0.3S95,40,94,39.6c0,0-0.7-0.2-0.9,0.5c0,0-0.1,0.2,0.1,0.5
	c0.1,0.4-0.1,0.6-0.5,0.5l-1.5-0.4c0,0-0.3,0-0.4,0.2l-0.4,1.4c0,0-0.1,0.4-0.4,0.4c-0.3,0-0.4-0.3-0.5-0.4
	c-0.1-0.1-0.3-0.3-0.7-0.2c-0.4,0.1-0.8,0.9-0.4,1.3c0,0,0.3,0.3,0.8,0.2c0,0,0.3-0.1,0.5-0.1S89.9,44,89.8,44.2z"/>
<radialGradient id="SVGID_3_" cx="3363.728" cy="123.4752" r="52.5934" gradientTransform="matrix(-1 0 0 1 3597.4336 0)" gradientUnits="userSpaceOnUse">
	<stop  offset="0" style="stop-color:#FFFFFF"/>
	<stop  offset="1" style="stop-color:#F7931E"/>
</radialGradient>
<path class="st9" d="M190.4,141.5h5.4v17.6c0,0,1.3,6.6,8,7.4h13.3v13.6h51v-38.9c0,0,10.9-10.3,13.3-25.6c0.3-1.9,0.5-3.9,0.5-5.9
	c0-9.3-3.4-20-13.8-31.1c0,0-11.5-11.6-26.5-11.6c-9.5,0-18.7,2.3-26.5,7.1c-9.2,5.6-16.3,15-19.3,32v9.7l-10,19.1
	C185.8,134.7,183.4,140.8,190.4,141.5z"/>
<radialGradient id="SVGID_4_" cx="3358.5222" cy="91.2324" r="34.9788" gradientTransform="matrix(-1 0 0 1 3597.4336 0)" gradientUnits="userSpaceOnUse">
	<stop  offset="0" style="stop-color:#FFFFFF"/>
	<stop  offset="1" style="stop-color:#F7931E"/>
</radialGradient>
<path class="st10" d="M195.9,105.9v9.7h85.7c0.3-1.9,0.5-3.9,0.5-5.9c0-9.3-3.4-20-13.8-31.1c0,0-11.5-11.6-26.5-11.6
	c-9.5,0-18.7,2.3-26.5,7.1C206,79.6,198.8,88.9,195.9,105.9z"/>
<path class="st6" d="M267.8,113.3c0.4,0.8,1.3,0.6,1.5,0.3c0.3-0.3,0.5-0.2,0.5-0.2c0.4,0.1,0.4,0.6,0.4,0.6v1.5h7.4V114
	c0-0.5,0.5-0.7,0.9-0.4c0.4,0.3,0.7,0.3,0.7,0.3c1,0,1-1,1-1c-0.2-1.3-1.3-1.1-1.6-0.8c-0.4,0.3-0.5,0.2-0.5,0.2
	c-0.4,0-0.5-0.5-0.5-0.5v-2.1c0-0.1,0-0.1,0-0.1c-0.1-0.3-0.4-0.3-0.4-0.3h-2.1c-0.9-0.1-0.5-0.9-0.5-0.9c0.3-0.3,0.3-0.8,0.3-0.8
	c-0.3-1.3-1.5-0.8-1.5-0.8c-1.1,0.5-0.4,1.5-0.4,1.5c0.3,0.4,0.2,0.6,0.2,0.6c-0.1,0.4-0.5,0.4-0.5,0.4h-2.2c-0.1,0-0.2,0.1-0.3,0.1
	c-0.2,0.1-0.2,0.3-0.2,0.3v2.1c-0.1,0.6-0.5,0.5-0.5,0.5c-0.3,0-0.6-0.3-0.6-0.3C268.2,111.4,267.4,112.5,267.8,113.3z"/>
<path class="st7" d="M223,102.8h-2c0,0-0.4,0-0.5-0.4v-2.1c0,0,0-0.5-0.4-0.6c0,0-0.3-0.1-0.5,0.2s-1.2,0.5-1.5-0.3s0.4-1.9,1.5-1.3
	c0,0,0.3,0.3,0.6,0.3c0,0,0.4,0,0.5-0.5v-2.1c0,0,0-0.4,0.4-0.4h2.2c0,0,0.5,0,0.5-0.4c0,0,0.1-0.3-0.2-0.6c0,0-0.7-0.9,0.4-1.5
	c0,0,1.3-0.5,1.5,0.8c0,0,0,0.6-0.3,0.8c0,0-0.4,0.8,0.5,0.9h2.1c0,0,0.4,0,0.4,0.4V98c0,0,0.1,0.5,0.5,0.5c0,0,0.1,0.1,0.5-0.2
	c0.4-0.3,1.4-0.5,1.6,0.8c0,0-0.1,1-1,1c0,0-0.3,0-0.7-0.3s-0.9-0.1-0.9,0.4v2.1c0,0-0.1,0.4-0.5,0.5h-2c0,0-0.5,0-0.6,0.4
	c-0.1,0.4,0.2,0.6,0.3,0.8s0.3,0.4,0,1c-0.3,0.5-1.4,0.7-1.8,0c0,0-0.3-0.6,0.1-1c0,0,0.3-0.3,0.3-0.6
	C223.7,102.9,223.3,102.8,223,102.8z"/>
<path class="st7" d="M260.7,113.3c0.4,0.8,1.3,0.6,1.5,0.3c0.3-0.3,0.5-0.2,0.5-0.2c0.4,0.1,0.4,0.6,0.4,0.6v1.5h7.4V114
	c0-0.5,0.5-0.7,0.9-0.4c0.4,0.3,0.7,0.3,0.7,0.3c1,0,1-1,1-1c-0.2-1.3-1.3-1.1-1.6-0.8c-0.4,0.3-0.5,0.2-0.5,0.2
	c-0.4,0-0.5-0.5-0.5-0.5v-2.1c0-0.2-0.1-0.3-0.2-0.3c-0.1-0.1-0.3-0.1-0.3-0.1h-2.1c-0.9-0.1-0.5-0.9-0.5-0.9
	c0.3-0.3,0.3-0.8,0.3-0.8c-0.3-1.3-1.5-0.8-1.5-0.8c-1.1,0.5-0.4,1.5-0.4,1.5c0.3,0.4,0.2,0.6,0.2,0.6c-0.1,0.4-0.5,0.4-0.5,0.4
	h-2.2c-0.1,0-0.2,0.1-0.3,0.1c-0.1,0.1-0.1,0.3-0.1,0.3v2.1c-0.1,0.6-0.5,0.5-0.5,0.5c-0.3,0-0.6-0.3-0.6-0.3
	C261.1,111.4,260.3,112.5,260.7,113.3z"/>
<path class="st7" d="M253.5,113.3c0.4,0.8,1.3,0.6,1.5,0.3c0.3-0.3,0.5-0.2,0.5-0.2c0.4,0.1,0.4,0.6,0.4,0.6v1.5h7.4V114
	c0-0.5,0.5-0.7,0.9-0.4c0.4,0.3,0.7,0.3,0.7,0.3c1,0,1-1,1-1c-0.2-1.3-1.3-1.1-1.6-0.8c-0.4,0.3-0.5,0.2-0.5,0.2
	c-0.4,0-0.5-0.5-0.5-0.5v-2.1c0-0.1-0.1-0.2-0.2-0.3c-0.1-0.1-0.3-0.1-0.3-0.1h-2.1c-0.9-0.1-0.5-0.9-0.5-0.9
	c0.3-0.3,0.3-0.8,0.3-0.8c-0.3-1.3-1.5-0.8-1.5-0.8c-1.1,0.5-0.4,1.5-0.4,1.5c0.3,0.4,0.2,0.6,0.2,0.6c-0.1,0.4-0.5,0.4-0.5,0.4
	h-2.2c-0.1,0-0.2,0.1-0.3,0.1c-0.2,0.1-0.2,0.3-0.2,0.3v2.1c-0.1,0.6-0.5,0.5-0.5,0.5c-0.3,0-0.6-0.3-0.6-0.3
	C254,111.4,253.1,112.5,253.5,113.3z"/>
<path class="st6" d="M246.4,113.3c0.4,0.8,1.3,0.6,1.5,0.3c0.3-0.3,0.5-0.2,0.5-0.2c0.4,0.1,0.4,0.6,0.4,0.6v1.5h7.4V114
	c0-0.5,0.5-0.7,0.9-0.4c0.4,0.3,0.7,0.3,0.7,0.3c1,0,1-1,1-1c-0.2-1.3-1.3-1.1-1.6-0.8c-0.4,0.3-0.5,0.2-0.5,0.2
	c-0.4,0-0.5-0.5-0.5-0.5v-2.1c0-0.2-0.1-0.3-0.2-0.3c-0.1-0.1-0.3-0.1-0.3-0.1h-2.1c-0.9-0.1-0.5-0.9-0.5-0.9
	c0.3-0.3,0.3-0.8,0.3-0.8c-0.3-1.3-1.5-0.8-1.5-0.8c-1.1,0.5-0.4,1.5-0.4,1.5c0.3,0.4,0.2,0.6,0.2,0.6c-0.1,0.4-0.5,0.4-0.5,0.4
	h-2.2c-0.2,0-0.3,0.1-0.4,0.2c0,0.1,0,0.2,0,0.2v2.1c-0.1,0.6-0.5,0.5-0.5,0.5c-0.3,0-0.6-0.3-0.6-0.3
	C246.9,111.4,246,112.5,246.4,113.3z"/>
<path class="st6" d="M239.1,113.3c0.4,0.8,1.3,0.6,1.5,0.3c0.3-0.3,0.5-0.2,0.5-0.2c0.4,0.1,0.4,0.6,0.4,0.6v1.5h7.4V114
	c0-0.5,0.5-0.7,0.9-0.4c0.4,0.3,0.7,0.3,0.7,0.3c1,0,1-1,1-1c-0.2-1.3-1.3-1.1-1.6-0.8c-0.4,0.3-0.5,0.2-0.5,0.2
	c-0.4,0-0.5-0.5-0.5-0.5v-2.1c0-0.1,0-0.1-0.1-0.2c0-0.1-0.1-0.1-0.1-0.1c-0.1-0.1-0.3-0.1-0.3-0.1h-2.1c-0.9-0.1-0.5-0.9-0.5-0.9
	c0.3-0.3,0.3-0.8,0.3-0.8c-0.3-1.3-1.5-0.8-1.5-0.8c-1.1,0.5-0.4,1.5-0.4,1.5c0.3,0.4,0.2,0.6,0.2,0.6c-0.1,0.4-0.5,0.4-0.5,0.4H242
	c-0.1,0-0.2,0.1-0.3,0.1c-0.1,0.1-0.1,0.3-0.1,0.3v2.1c-0.1,0.6-0.5,0.5-0.5,0.5c-0.3,0-0.6-0.3-0.6-0.3
	C239.5,111.4,238.7,112.5,239.1,113.3z"/>
<path class="st6" d="M224.9,113.3c0.4,0.8,1.3,0.6,1.5,0.3c0.3-0.3,0.5-0.2,0.5-0.2c0.4,0.1,0.4,0.6,0.4,0.6v1.5h7.4V114
	c0-0.5,0.5-0.7,0.9-0.4c0.4,0.3,0.7,0.3,0.7,0.3c1,0,1-1,1-1c-0.2-1.3-1.3-1.1-1.6-0.8c-0.4,0.3-0.5,0.2-0.5,0.2
	c-0.4,0-0.5-0.5-0.5-0.5v-2.1c0-0.4-0.4-0.4-0.4-0.4h-2.1c-0.9-0.1-0.5-0.9-0.5-0.9c0.3-0.3,0.3-0.8,0.3-0.8
	c-0.3-1.3-1.5-0.8-1.5-0.8c-1.1,0.5-0.4,1.5-0.4,1.5c0.3,0.4,0.2,0.6,0.2,0.6c-0.1,0.4-0.5,0.4-0.5,0.4h-2.2c-0.4,0-0.4,0.4-0.4,0.4
	v2.1c-0.1,0.6-0.5,0.5-0.5,0.5c-0.3,0-0.6-0.3-0.6-0.3C225.3,111.4,224.5,112.5,224.9,113.3z"/>
<path class="st6" d="M275.1,113.3c0.4,0.8,1.3,0.6,1.5,0.3c0.3-0.3,0.5-0.2,0.5-0.2c0.4,0.1,0.4,0.6,0.4,0.6v1.5h3.1l1.3-6.4
	c0-0.1,0-0.2,0-0.3v0c0,0,0-0.1,0-0.1c0-0.7,0-1.1-0.1-1.9v0c-0.4-0.2-1,0-1,0c-1.1,0.5-0.4,1.5-0.4,1.5c0.3,0.4,0.2,0.6,0.2,0.6
	c-0.1,0.4-0.5,0.4-0.5,0.4h-2.2c-0.3,0-0.4,0.2-0.4,0.3c0,0.1,0,0.1,0,0.1v2.1c-0.1,0.6-0.5,0.5-0.5,0.5c-0.3,0-0.6-0.3-0.6-0.3
	C275.6,111.4,274.7,112.5,275.1,113.3z"/>
<path class="st6" d="M218.2,113.3c0.4,0.8,1.3,0.6,1.5,0.3c0.3-0.3,0.5-0.2,0.5-0.2c0.4,0.1,0.4,0.6,0.4,0.6v1.5h7.4V114
	c0-0.5,0.5-0.7,0.9-0.4c0.4,0.3,0.7,0.3,0.7,0.3c1,0,1-1,1-1c-0.2-1.3-1.3-1.1-1.6-0.8c-0.4,0.3-0.5,0.2-0.5,0.2
	c-0.4,0-0.5-0.5-0.5-0.5v-2.1c0-0.4-0.4-0.4-0.4-0.4h-2.1c-0.9-0.1-0.5-0.9-0.5-0.9c0.3-0.3,0.3-0.8,0.3-0.8
	c-0.3-1.3-1.5-0.8-1.5-0.8c-1.1,0.5-0.4,1.5-0.4,1.5c0.3,0.4,0.2,0.6,0.2,0.6c-0.1,0.4-0.5,0.4-0.5,0.4h-2.2c-0.4,0-0.4,0.4-0.4,0.4
	v2.1c-0.1,0.6-0.5,0.5-0.5,0.5c-0.3,0-0.6-0.3-0.6-0.3C218.7,111.4,217.9,112.5,218.2,113.3z"/>
<path class="st7" d="M211.6,113.3c0.4,0.8,1.3,0.6,1.5,0.3c0.3-0.3,0.5-0.2,0.5-0.2c0.4,0.1,0.4,0.6,0.4,0.6v1.5h7.4V114
	c0-0.5,0.5-0.7,0.9-0.4c0.4,0.3,0.7,0.3,0.7,0.3c1,0,1-1,1-1c-0.2-1.3-1.3-1.1-1.6-0.8c-0.4,0.3-0.5,0.2-0.5,0.2
	c-0.4,0-0.5-0.5-0.5-0.5v-2.1c0-0.4-0.4-0.4-0.4-0.4H219c-0.9-0.1-0.5-0.9-0.5-0.9c0.3-0.3,0.3-0.8,0.3-0.8
	c-0.3-1.3-1.5-0.8-1.5-0.8c-1.1,0.5-0.4,1.5-0.4,1.5c0.3,0.4,0.2,0.6,0.2,0.6c-0.1,0.4-0.5,0.4-0.5,0.4h-2.2c-0.4,0-0.4,0.4-0.4,0.4
	v2.1c-0.1,0.6-0.5,0.5-0.5,0.5c-0.3,0-0.6-0.3-0.6-0.3C212,111.4,211.2,112.5,211.6,113.3z"/>
<path class="st7" d="M204.9,113.3c0.4,0.8,1.3,0.6,1.5,0.3c0.3-0.3,0.5-0.2,0.5-0.2c0.4,0.1,0.4,0.6,0.4,0.6v1.5h7.4V114
	c0-0.5,0.5-0.7,0.9-0.4c0.4,0.3,0.7,0.3,0.7,0.3c1,0,1-1,1-1c-0.2-1.3-1.3-1.1-1.6-0.8c-0.4,0.3-0.5,0.2-0.5,0.2
	c-0.4,0-0.5-0.5-0.5-0.5v-2.1c0-0.4-0.4-0.4-0.4-0.4h-2.1c-0.9-0.1-0.5-0.9-0.5-0.9c0.3-0.3,0.3-0.8,0.3-0.8
	c-0.3-1.3-1.5-0.8-1.5-0.8c-1.1,0.5-0.4,1.5-0.4,1.5c0.3,0.4,0.2,0.6,0.2,0.6c-0.1,0.4-0.5,0.4-0.5,0.4h-2.2c-0.4,0-0.4,0.4-0.4,0.4
	v2.1c-0.1,0.6-0.5,0.5-0.5,0.5c-0.3,0-0.6-0.3-0.6-0.3C205.4,111.4,204.5,112.5,204.9,113.3z"/>
<path class="st6" d="M198.3,113.3c0.4,0.8,1.3,0.6,1.5,0.3c0.3-0.3,0.5-0.2,0.5-0.2c0.4,0.1,0.4,0.6,0.4,0.6v1.5h7.4V114
	c0-0.5,0.5-0.7,0.9-0.4c0.4,0.3,0.7,0.3,0.7,0.3c1,0,1-1,1-1c-0.2-1.3-1.3-1.1-1.6-0.8c-0.4,0.3-0.5,0.2-0.5,0.2
	c-0.4,0-0.5-0.5-0.5-0.5v-2.1c0-0.4-0.4-0.4-0.4-0.4h-2.1c-0.9-0.1-0.5-0.9-0.5-0.9c0.3-0.3,0.3-0.8,0.3-0.8
	c-0.3-1.3-1.5-0.8-1.5-0.8c-1.1,0.5-0.4,1.5-0.4,1.5c0.3,0.4,0.2,0.6,0.2,0.6c-0.1,0.4-0.5,0.4-0.5,0.4h-2.2c-0.4,0-0.4,0.4-0.4,0.4
	v2.1c-0.1,0.6-0.5,0.5-0.5,0.5c-0.3,0-0.6-0.3-0.6-0.3C198.8,111.4,197.9,112.5,198.3,113.3z"/>
<path class="st6" d="M275.6,107c0.4,0.8,1.3,0.6,1.5,0.3c0.3-0.3,0.5-0.2,0.5-0.2c0.4,0.1,0.4,0.6,0.4,0.6v1.5h3.8l0-0.1
	c0-0.1,0-0.2,0-0.3v0c0,0,0-0.1,0-0.1c0-0.7,0-1.1-0.1-1.9v0c-0.2-1.9-0.5-3.9-1-6c-0.3,0.5,0.1,1.1,0.1,1.1
	c0.3,0.4,0.2,0.6,0.2,0.6c-0.1,0.4-0.5,0.4-0.5,0.4h-2.2c-0.1,0-0.2,0.1-0.3,0.1c-0.2,0.1-0.2,0.3-0.2,0.3v2.1
	c-0.1,0.6-0.5,0.5-0.5,0.5c-0.3,0-0.6-0.3-0.6-0.3C276.1,105,275.2,106.1,275.6,107z"/>
<path class="st7" d="M232,113.3c0.4,0.8,1.3,0.6,1.5,0.3c0.3-0.3,0.5-0.2,0.5-0.2c0.4,0.1,0.4,0.6,0.4,0.6v1.5h7.4V114
	c0-0.5,0.5-0.7,0.9-0.4c0.4,0.3,0.7,0.3,0.7,0.3c1,0,1-1,1-1c-0.2-1.3-1.3-1.1-1.6-0.8c-0.4,0.3-0.5,0.2-0.5,0.2
	c-0.4,0-0.5-0.5-0.5-0.5v-2.1c0-0.1-0.1-0.2-0.2-0.3c-0.1-0.1-0.3-0.1-0.3-0.1h-2.1c-0.9-0.1-0.5-0.9-0.5-0.9
	c0.3-0.3,0.3-0.8,0.3-0.8c-0.3-1.3-1.5-0.8-1.5-0.8c-1.1,0.5-0.4,1.5-0.4,1.5c0.3,0.4,0.2,0.6,0.2,0.6c-0.1,0.4-0.5,0.4-0.5,0.4
	h-2.2c-0.4,0-0.4,0.4-0.4,0.4v2.1c-0.1,0.6-0.5,0.5-0.5,0.5c-0.3,0-0.6-0.3-0.6-0.3C232.4,111.4,231.6,112.5,232,113.3z"/>
<path class="st6" d="M195.9,109.2v6.4h5.7V114c0-0.5,0.5-0.7,0.9-0.4c0.4,0.3,0.7,0.3,0.7,0.3c1,0,1-1,1-1c-0.2-1.3-1.3-1.1-1.6-0.8
	c-0.4,0.3-0.5,0.2-0.5,0.2c-0.4,0-0.5-0.5-0.5-0.5v-2.1c0-0.4-0.4-0.4-0.4-0.4H199c-0.9-0.1-0.5-0.9-0.5-0.9
	c0.3-0.3,0.3-0.8,0.3-0.8c-0.3-1.3-1.5-0.8-1.5-0.8c-1.1,0.5-0.4,1.5-0.4,1.5c0.3,0.4,0.2,0.6,0.2,0.6c-0.1,0.4-0.5,0.4-0.5,0.4
	H195.9z"/>
<path class="st7" d="M208.5,102.8h-2c0,0-0.4,0-0.5-0.4v-2.1c0,0,0-0.5-0.4-0.6c0,0-0.3-0.1-0.5,0.2s-1.2,0.5-1.5-0.3
	c-0.4-0.8,0.4-1.9,1.5-1.3c0,0,0.3,0.3,0.6,0.3c0,0,0.4,0,0.5-0.5v-2.1c0,0,0-0.4,0.4-0.4h2.2c0,0,0.5,0,0.5-0.4
	c0,0,0.1-0.3-0.2-0.6c0,0-0.7-0.9,0.4-1.5c0,0,1.3-0.5,1.5,0.8c0,0,0,0.6-0.3,0.8c0,0-0.4,0.8,0.5,0.9h2.1c0,0,0.4,0,0.4,0.4V98
	c0,0,0.1,0.5,0.5,0.5c0,0,0.1,0.1,0.5-0.2s1.4-0.5,1.6,0.8c0,0-0.1,1-1,1c0,0-0.3,0-0.7-0.3c-0.4-0.3-0.9-0.1-0.9,0.4v2.1
	c0,0-0.1,0.4-0.5,0.5h-2c0,0-0.5,0-0.6,0.4c-0.1,0.4,0.2,0.6,0.3,0.8s0.3,0.4,0,1c-0.3,0.5-1.4,0.7-1.8,0c0,0-0.3-0.6,0.1-1
	c0,0,0.3-0.3,0.3-0.6C209.2,102.9,208.9,102.8,208.5,102.8z"/>
<path class="st6" d="M244.5,102.8h-2c0,0-0.4,0-0.5-0.4v-2.1c0,0,0-0.5-0.4-0.6c0,0-0.3-0.1-0.5,0.2c-0.3,0.3-1.2,0.5-1.5-0.3
	c-0.4-0.8,0.4-1.9,1.5-1.3c0,0,0.3,0.3,0.6,0.3c0,0,0.4,0,0.5-0.5v-2.1c0,0,0-0.4,0.4-0.4h2.2c0,0,0.5,0,0.5-0.4
	c0,0,0.1-0.3-0.2-0.6c0,0-0.7-0.9,0.4-1.5c0,0,1.3-0.5,1.5,0.8c0,0,0,0.6-0.3,0.8c0,0-0.4,0.8,0.5,0.9h2.1c0,0,0.4,0,0.4,0.4V98
	c0,0,0.1,0.5,0.5,0.5c0,0,0.1,0.1,0.5-0.2c0.4-0.3,1.4-0.5,1.6,0.8c0,0-0.1,1-1,1c0,0-0.3,0-0.7-0.3c-0.4-0.3-0.9-0.1-0.9,0.4v2.1
	c0,0-0.1,0.4-0.5,0.5h-2c0,0-0.5,0-0.6,0.4c-0.1,0.4,0.2,0.6,0.3,0.8s0.3,0.4,0,1s-1.4,0.7-1.8,0c0,0-0.3-0.6,0.1-1
	c0,0,0.3-0.3,0.3-0.6C245.2,102.9,244.9,102.8,244.5,102.8z"/>
<path class="st7" d="M266.4,102.8h-2c0,0-0.4,0-0.5-0.4v-2.1c0,0,0-0.5-0.4-0.6c0,0-0.3-0.1-0.5,0.2s-1.2,0.5-1.5-0.3
	c-0.4-0.8,0.4-1.9,1.5-1.3c0,0,0.3,0.3,0.6,0.3c0,0,0.4,0,0.5-0.5v-2.1c0,0,0-0.4,0.4-0.4h2.2c0,0,0.5,0,0.5-0.4
	c0,0,0.1-0.3-0.2-0.6c0,0-0.7-0.9,0.4-1.5c0,0,1.3-0.5,1.5,0.8c0,0,0,0.6-0.3,0.8c0,0-0.4,0.8,0.5,0.9h2.1c0,0,0.4,0,0.4,0.4V98
	c0,0,0.1,0.5,0.5,0.5c0,0,0.1,0.1,0.5-0.2c0.4-0.3,1.4-0.5,1.6,0.8c0,0-0.1,1-1,1c0,0-0.3,0-0.7-0.3s-0.9-0.1-0.9,0.4v2.1
	c0,0-0.1,0.4-0.5,0.5h-2c0,0-0.5,0-0.6,0.4c-0.1,0.4,0.2,0.6,0.3,0.8c0.1,0.2,0.3,0.4,0,1c-0.3,0.5-1.4,0.7-1.8,0c0,0-0.3-0.6,0.1-1
	c0,0,0.3-0.3,0.3-0.6C267.1,102.9,266.7,102.8,266.4,102.8z"/>
<path class="st7" d="M264.4,85.3l-1.1-0.5c0,0-0.2-0.1-0.1-0.4l0.5-1.2c0,0,0.1-0.3-0.1-0.4c0,0-0.1-0.1-0.4,0
	c-0.2,0.1-0.8,0-0.8-0.6s0.8-1,1.2-0.3c0,0,0.1,0.2,0.3,0.3c0,0,0.2,0.1,0.4-0.2l0.6-1.2c0,0,0.1-0.2,0.4-0.1l1.2,0.6
	c0,0,0.3,0.1,0.4-0.1c0,0,0.1-0.1,0-0.4c0,0-0.1-0.7,0.6-0.7c0,0,0.8,0.1,0.6,0.9c0,0-0.1,0.3-0.4,0.4c0,0-0.5,0.3,0,0.6l1.2,0.6
	c0,0,0.2,0.1,0.1,0.4l-0.6,1.2c0,0-0.1,0.3,0.2,0.4c0,0,0,0.1,0.3,0c0.3-0.1,0.9,0.1,0.7,0.9c0,0-0.3,0.6-0.9,0.3
	c0,0-0.2-0.1-0.3-0.4c-0.1-0.3-0.5-0.3-0.6,0l-0.5,1.2c0,0-0.1,0.2-0.4,0.1l-1.1-0.5c0,0-0.3-0.2-0.5,0c-0.2,0.2,0,0.4,0,0.5
	c0,0.1,0,0.3-0.3,0.5s-1,0-1-0.5c0,0,0-0.4,0.3-0.6c0,0,0.2-0.1,0.3-0.3C264.7,85.6,264.6,85.4,264.4,85.3z"/>
<line class="st8" x1="271.3" y1="102.8" x2="271.3" y2="102.8"/>
<path class="st7" d="M270.2,104.8c0,0,0.3,0.3,0.6,0.3c0,0,0.4,0,0.5-0.5v-1.7h2.5c0.9,0.1,0.5,0.9,0.5,0.9
	c-0.3,0.3-0.3,0.8-0.3,0.8c0.3,1.3,1.5,0.8,1.5,0.8c1.1-0.5,0.4-1.5,0.4-1.5c-0.3-0.4-0.2-0.6-0.2-0.6c0.1-0.4,0.5-0.4,0.5-0.4h2.6
	v1.7c0,0,0.1,0.5,0.5,0.5c0,0,0.1,0.1,0.5-0.2s1.4-0.5,1.6,0.8c0,0-0.1,1-1,1c0,0-0.3,0-0.7-0.3c-0.4-0.3-0.9-0.1-0.9,0.4v2.1
	c0,0-0.1,0.4-0.5,0.5h-2c0,0-0.5,0-0.6,0.4c-0.1,0.4,0.2,0.6,0.3,0.8s0.3,0.4,0,1c-0.3,0.5-1.4,0.7-1.8,0c0,0-0.3-0.6,0.1-1
	c0,0,0.3-0.3,0.3-0.6c0-0.3-0.3-0.5-0.7-0.5h-2c0,0-0.4,0-0.5-0.4v-2.1c0,0,0-0.5-0.4-0.6c0,0-0.3-0.1-0.5,0.2s-1.2,0.5-1.5-0.3
	C268.4,105.2,269.2,104.1,270.2,104.8z"/>
<path class="st6" d="M262.9,104.8c0,0,0.3,0.3,0.6,0.3c0,0,0.4,0,0.5-0.5v-1.7h2.5c0.9,0.1,0.5,0.9,0.5,0.9
	c-0.3,0.3-0.3,0.8-0.3,0.8c0.3,1.3,1.5,0.8,1.5,0.8c1.1-0.5,0.4-1.5,0.4-1.5c-0.3-0.4-0.2-0.6-0.2-0.6c0.1-0.4,0.5-0.4,0.5-0.4h2.6
	v1.7c0,0,0.1,0.5,0.5,0.5c0,0,0.1,0.1,0.5-0.2c0.4-0.3,1.4-0.5,1.6,0.8c0,0-0.1,1-1,1c0,0-0.3,0-0.7-0.3c-0.4-0.3-0.9-0.1-0.9,0.4
	v2.1c0,0-0.1,0.4-0.5,0.5h-2c0,0-0.5,0-0.6,0.4c-0.1,0.4,0.2,0.6,0.3,0.8s0.3,0.4,0,1c-0.3,0.5-1.4,0.7-1.8,0c0,0-0.3-0.6,0.1-1
	c0,0,0.3-0.3,0.3-0.6c0-0.3-0.3-0.5-0.7-0.5h-2c0,0-0.4,0-0.5-0.4v-2.1c0,0,0-0.5-0.4-0.6c0,0-0.3-0.1-0.5,0.2
	c-0.3,0.3-1.2,0.5-1.5-0.3C261.1,105.2,261.9,104.1,262.9,104.8z"/>
<path class="st6" d="M255.8,104.8c0,0,0.3,0.3,0.6,0.3c0,0,0.4,0,0.5-0.5v-1.7h2.5c0.9,0.1,0.5,0.9,0.5,0.9
	c-0.3,0.3-0.3,0.8-0.3,0.8c0.3,1.3,1.5,0.8,1.5,0.8c1.1-0.5,0.4-1.5,0.4-1.5c-0.3-0.4-0.2-0.6-0.2-0.6c0.1-0.4,0.5-0.4,0.5-0.4h2.6
	v1.7c0,0,0.1,0.5,0.5,0.5c0,0,0.1,0.1,0.5-0.2c0.4-0.3,1.4-0.5,1.6,0.8c0,0-0.1,1-1,1c0,0-0.3,0-0.7-0.3c-0.4-0.3-0.9-0.1-0.9,0.4
	v2.1c0,0-0.1,0.4-0.5,0.5h-2c0,0-0.5,0-0.6,0.4c-0.1,0.4,0.2,0.6,0.3,0.8s0.3,0.4,0,1c-0.3,0.5-1.4,0.7-1.8,0c0,0-0.3-0.6,0.1-1
	c0,0,0.3-0.3,0.3-0.6c0-0.3-0.3-0.5-0.7-0.5h-2c0,0-0.4,0-0.5-0.4v-2.1c0,0,0-0.5-0.4-0.6c0,0-0.3-0.1-0.5,0.2
	c-0.3,0.3-1.2,0.5-1.5-0.3C254,105.2,254.8,104.1,255.8,104.8z"/>
<g>
	<line class="st6" x1="235.4" y1="80.1" x2="235.4" y2="80.1"/>
	<path class="st6" d="M234.3,82.1c0,0,0.3,0.3,0.6,0.3c0,0,0.4,0,0.5-0.5v-1.7h2.5c0.9,0.1,0.5,0.9,0.5,0.9
		c-0.3,0.3-0.3,0.8-0.3,0.8c0.3,1.3,1.5,0.8,1.5,0.8c1.1-0.5,0.4-1.5,0.4-1.5c-0.3-0.4-0.2-0.6-0.2-0.6c0.1-0.4,0.5-0.4,0.5-0.4h2.6
		v1.7c0,0,0.1,0.5,0.5,0.5c0,0,0.1,0.1,0.5-0.2c0.4-0.3,1.4-0.5,1.6,0.8c0,0-0.1,1-1,1c0,0-0.3,0-0.7-0.3c-0.4-0.3-0.9-0.1-0.9,0.4
		v2.1c0,0-0.1,0.4-0.5,0.5h-2c0,0-0.5,0-0.6,0.4c-0.1,0.4,0.2,0.6,0.3,0.8c0.1,0.2,0.3,0.4,0,1c-0.3,0.5-1.4,0.7-1.8,0
		c0,0-0.3-0.6,0.1-1c0,0,0.3-0.3,0.3-0.6c0-0.3-0.3-0.5-0.7-0.5h-2c0,0-0.4,0-0.5-0.4v-2.1c0,0,0-0.5-0.4-0.6c0,0-0.3-0.1-0.5,0.2
		c-0.3,0.3-1.2,0.5-1.5-0.3C232.5,82.5,233.3,81.4,234.3,82.1z"/>
</g>
<path class="st7" d="M248.4,104.8c0,0,0.3,0.3,0.6,0.3c0,0,0.4,0,0.5-0.5v-1.7h2.5c0.9,0.1,0.5,0.9,0.5,0.9
	c-0.3,0.3-0.3,0.8-0.3,0.8c0.3,1.3,1.5,0.8,1.5,0.8c1.1-0.5,0.4-1.5,0.4-1.5c-0.3-0.4-0.2-0.6-0.2-0.6c0.1-0.4,0.5-0.4,0.5-0.4h2.6
	v1.7c0,0,0.1,0.5,0.5,0.5c0,0,0.1,0.1,0.5-0.2s1.4-0.5,1.6,0.8c0,0-0.1,1-1,1c0,0-0.3,0-0.7-0.3c-0.4-0.3-0.9-0.1-0.9,0.4v2.1
	c0,0-0.1,0.4-0.5,0.5h-2c0,0-0.5,0-0.6,0.4c-0.1,0.4,0.2,0.6,0.3,0.8s0.3,0.4,0,1c-0.3,0.5-1.4,0.7-1.8,0c0,0-0.3-0.6,0.1-1
	c0,0,0.3-0.3,0.3-0.6c0-0.3-0.3-0.5-0.7-0.5h-2c0,0-0.4,0-0.5-0.4v-2.1c0,0,0-0.5-0.4-0.6c0,0-0.3-0.1-0.5,0.2
	c-0.3,0.3-1.2,0.5-1.5-0.3C246.6,105.2,247.4,104.1,248.4,104.8z"/>
<path class="st7" d="M241.1,104.8c0,0,0.3,0.3,0.6,0.3c0,0,0.4,0,0.5-0.5v-1.7h2.5c0.9,0.1,0.5,0.9,0.5,0.9
	c-0.3,0.3-0.3,0.8-0.3,0.8c0.3,1.3,1.5,0.8,1.5,0.8c1.1-0.5,0.4-1.5,0.4-1.5c-0.3-0.4-0.2-0.6-0.2-0.6c0.1-0.4,0.5-0.4,0.5-0.4h2.6
	v1.7c0,0,0.1,0.5,0.5,0.5c0,0,0.1,0.1,0.5-0.2c0.4-0.3,1.4-0.5,1.6,0.8c0,0-0.1,1-1,1c0,0-0.3,0-0.7-0.3c-0.4-0.3-0.9-0.1-0.9,0.4
	v2.1c0,0-0.1,0.4-0.5,0.5h-2c0,0-0.5,0-0.6,0.4c-0.1,0.4,0.2,0.6,0.3,0.8c0.1,0.2,0.3,0.4,0,1c-0.3,0.5-1.4,0.7-1.8,0
	c0,0-0.3-0.6,0.1-1c0,0,0.3-0.3,0.3-0.6c0-0.3-0.3-0.5-0.7-0.5h-2c0,0-0.4,0-0.5-0.4v-2.1c0,0,0-0.5-0.4-0.6c0,0-0.3-0.1-0.5,0.2
	c-0.3,0.3-1.2,0.5-1.5-0.3C239.3,105.2,240.1,104.1,241.1,104.8z"/>
<path class="st6" d="M234,104.8c0,0,0.3,0.3,0.6,0.3c0,0,0.4,0,0.5-0.5v-1.7h2.5c0.9,0.1,0.5,0.9,0.5,0.9c-0.3,0.3-0.3,0.8-0.3,0.8
	c0.3,1.3,1.5,0.8,1.5,0.8c1.1-0.5,0.4-1.5,0.4-1.5c-0.3-0.4-0.2-0.6-0.2-0.6c0.1-0.4,0.5-0.4,0.5-0.4h2.6v1.7c0,0,0.1,0.5,0.5,0.5
	c0,0,0.1,0.1,0.5-0.2c0.4-0.3,1.4-0.5,1.6,0.8c0,0-0.1,1-1,1c0,0-0.3,0-0.7-0.3c-0.4-0.3-0.9-0.1-0.9,0.4v2.1c0,0-0.1,0.4-0.5,0.5
	h-2c0,0-0.5,0-0.6,0.4c-0.1,0.4,0.2,0.6,0.3,0.8c0.1,0.2,0.3,0.4,0,1c-0.3,0.5-1.4,0.7-1.8,0c0,0-0.3-0.6,0.1-1c0,0,0.3-0.3,0.3-0.6
	c0-0.3-0.3-0.5-0.7-0.5h-2c0,0-0.4,0-0.5-0.4v-2.1c0,0,0-0.5-0.4-0.6c0,0-0.3-0.1-0.5,0.2c-0.3,0.3-1.2,0.5-1.5-0.3
	C232.2,105.2,233,104.1,234,104.8z"/>
<path class="st6" d="M250.8,76.7c0,0-0.1,0.4,0.1,0.6c0,0,0.2,0.3,0.7,0l1.3-1l1.5,2c0.5,0.8-0.4,0.9-0.4,0.9
	c-0.4-0.1-0.9,0.2-0.9,0.2c-0.9,1,0.3,1.7,0.3,1.7c1.1,0.5,1.4-0.6,1.4-0.6c0.1-0.5,0.3-0.6,0.3-0.6c0.4-0.2,0.7,0.2,0.7,0.2
	l1.6,2.1l-1.4,1c0,0-0.3,0.4-0.1,0.7c0,0,0,0.1,0.5,0.2s1.3,0.8,0.3,1.8c0,0-0.9,0.6-1.4-0.2c0,0-0.2-0.2-0.2-0.7
	c0-0.5-0.5-0.7-0.9-0.4l-1.6,1.2c0,0-0.3,0.2-0.6-0.1l-1.2-1.6c0,0-0.3-0.4-0.7-0.3c-0.4,0.1-0.3,0.6-0.4,0.7
	c-0.1,0.2-0.2,0.5-0.8,0.6c-0.6,0.1-1.4-0.7-1.1-1.5c0,0,0.3-0.6,0.9-0.6c0,0,0.4,0.1,0.6-0.1s0.2-0.6-0.1-0.8l-1.2-1.6
	c0,0-0.2-0.3,0.1-0.6l1.6-1.2c0,0,0.4-0.3,0.2-0.7c0,0-0.1-0.2-0.5-0.3c-0.4-0.1-1.1-0.6-0.7-1.4C249.3,75.5,250.7,75.5,250.8,76.7z
	"/>
<path class="st7" d="M219.5,104.8c0,0,0.3,0.3,0.6,0.3c0,0,0.4,0,0.5-0.5v-1.7h2.5c0.9,0.1,0.5,0.9,0.5,0.9
	c-0.3,0.3-0.3,0.8-0.3,0.8c0.3,1.3,1.5,0.8,1.5,0.8c1.1-0.5,0.4-1.5,0.4-1.5c-0.3-0.4-0.2-0.6-0.2-0.6c0.1-0.4,0.5-0.4,0.5-0.4h2.6
	v1.7c0,0,0.1,0.5,0.5,0.5c0,0,0.1,0.1,0.5-0.2c0.4-0.3,1.4-0.5,1.6,0.8c0,0-0.1,1-1,1c0,0-0.3,0-0.7-0.3c-0.4-0.3-0.9-0.1-0.9,0.4
	v2.1c0,0-0.1,0.4-0.5,0.5h-2c0,0-0.5,0-0.6,0.4c-0.1,0.4,0.2,0.6,0.3,0.8c0.1,0.2,0.3,0.4,0,1c-0.3,0.5-1.4,0.7-1.8,0
	c0,0-0.3-0.6,0.1-1c0,0,0.3-0.3,0.3-0.6c0-0.3-0.3-0.5-0.7-0.5h-2c0,0-0.4,0-0.5-0.4v-2.1c0,0,0-0.5-0.4-0.6c0,0-0.3-0.1-0.5,0.2
	c-0.3,0.3-1.2,0.5-1.5-0.3C217.6,105.2,218.5,104.1,219.5,104.8z"/>
<path class="st6" d="M212.4,104.8c0,0,0.3,0.3,0.6,0.3c0,0,0.4,0,0.5-0.5v-1.7h2.5c0.9,0.1,0.5,0.9,0.5,0.9
	c-0.3,0.3-0.3,0.8-0.3,0.8c0.3,1.3,1.5,0.8,1.5,0.8c1.1-0.5,0.4-1.5,0.4-1.5c-0.3-0.4-0.2-0.6-0.2-0.6c0.1-0.4,0.5-0.4,0.5-0.4h2.6
	v1.7c0,0,0.1,0.5,0.5,0.5c0,0,0.1,0.1,0.5-0.2c0.4-0.3,1.4-0.5,1.6,0.8c0,0-0.1,1-1,1c0,0-0.3,0-0.7-0.3c-0.4-0.3-0.9-0.1-0.9,0.4
	v2.1c0,0-0.1,0.4-0.5,0.5h-2c0,0-0.5,0-0.6,0.4c-0.1,0.4,0.2,0.6,0.3,0.8c0.1,0.2,0.3,0.4,0,1c-0.3,0.5-1.4,0.7-1.8,0
	c0,0-0.3-0.6,0.1-1c0,0,0.3-0.3,0.3-0.6c0-0.3-0.3-0.5-0.7-0.5h-2c0,0-0.4,0-0.5-0.4v-2.1c0,0,0-0.5-0.4-0.6c0,0-0.3-0.1-0.5,0.2
	c-0.3,0.3-1.2,0.5-1.5-0.3S211.4,104.1,212.4,104.8z"/>
<path class="st6" d="M205,104.8c0,0,0.3,0.3,0.6,0.3c0,0,0.4,0,0.5-0.5v-1.7h2.5c0.9,0.1,0.5,0.9,0.5,0.9c-0.3,0.3-0.3,0.8-0.3,0.8
	c0.3,1.3,1.5,0.8,1.5,0.8c1.1-0.5,0.4-1.5,0.4-1.5c-0.3-0.4-0.2-0.6-0.2-0.6c0.1-0.4,0.5-0.4,0.5-0.4h2.6v1.7c0,0,0.1,0.5,0.5,0.5
	c0,0,0.1,0.1,0.5-0.2c0.4-0.3,1.4-0.5,1.6,0.8c0,0-0.1,1-1,1c0,0-0.3,0-0.7-0.3c-0.4-0.3-0.9-0.1-0.9,0.4v2.1c0,0-0.1,0.4-0.5,0.5
	h-2c0,0-0.5,0-0.6,0.4c-0.1,0.4,0.2,0.6,0.3,0.8c0.1,0.2,0.3,0.4,0,1c-0.3,0.5-1.4,0.7-1.8,0c0,0-0.3-0.6,0.1-1c0,0,0.3-0.3,0.3-0.6
	c0-0.3-0.3-0.5-0.7-0.5h-2c0,0-0.4,0-0.5-0.4v-2.1c0,0,0-0.5-0.4-0.6c0,0-0.3-0.1-0.5,0.2c-0.3,0.3-1.2,0.5-1.5-0.3
	C203.2,105.2,204,104.1,205,104.8z"/>
<path class="st6" d="M196.4,110.6c0,0.3-0.3,0.6-0.3,0.6c-0.4,0.5-0.1,1-0.1,1c0.4,0.7,1.5,0.6,1.8,0c0.3-0.5,0.1-0.8,0-1
	c-0.1-0.2-0.4-0.4-0.3-0.8c0.1-0.4,0.6-0.4,0.6-0.4h2c0.4-0.1,0.5-0.5,0.5-0.5v-2.1c0-0.5,0.5-0.7,0.9-0.4c0.4,0.3,0.7,0.3,0.7,0.3
	c1,0,1-1,1-1c-0.2-1.3-1.3-1.1-1.6-0.8c-0.4,0.3-0.5,0.2-0.5,0.2c-0.4,0-0.5-0.5-0.5-0.5v-2.1c0-0.4-0.4-0.4-0.4-0.4h-2.1
	c-0.9-0.1-0.5-0.9-0.5-0.9c0.3-0.3,0.3-0.8,0.3-0.8c-0.1-0.7-0.6-0.9-0.9-0.9c-0.2,0.8-0.4,1.7-0.6,2.6c-0.2,1-0.4,2-0.6,3.1v4.3
	C196.1,110.2,196.4,110.4,196.4,110.6z"/>
<path class="st7" d="M197.7,104.8c0,0,0.3,0.3,0.6,0.3c0,0,0.4,0,0.5-0.5v-1.7h2.5c0.9,0.1,0.5,0.9,0.5,0.9
	c-0.3,0.3-0.3,0.8-0.3,0.8c0.3,1.3,1.5,0.8,1.5,0.8c1.1-0.5,0.4-1.5,0.4-1.5c-0.3-0.4-0.2-0.6-0.2-0.6c0.1-0.4,0.5-0.4,0.5-0.4h2.6
	v1.7c0,0,0.1,0.5,0.5,0.5c0,0,0.1,0.1,0.5-0.2c0.4-0.3,1.4-0.5,1.6,0.8c0,0-0.1,1-1,1c0,0-0.3,0-0.7-0.3c-0.4-0.3-0.9-0.1-0.9,0.4
	v2.1c0,0-0.1,0.4-0.5,0.5h-2c0,0-2.2,0-2.5,0h-2c0,0-0.4,0-0.5-0.4v-2.1c0,0,0-0.5-0.4-0.6c0,0-0.3-0.1-0.5,0.2
	c-0.3,0.3-1.2,0.5-1.5-0.3C195.9,105.2,196.7,104.1,197.7,104.8z"/>
<path class="st7" d="M250.6,93.7c0,0-0.3-0.3-0.6-0.3c0,0-0.4,0-0.5,0.5v1.7H247c-0.9-0.1-0.5-0.9-0.5-0.9c0.3-0.3,0.3-0.8,0.3-0.8
	c-0.3-1.3-1.5-0.8-1.5-0.8c-1.1,0.5-0.4,1.5-0.4,1.5c0.3,0.4,0.2,0.6,0.2,0.6c-0.1,0.4-0.5,0.4-0.5,0.4h-2.6v-1.7
	c0,0-0.1-0.5-0.5-0.5c0,0-0.1-0.1-0.5,0.2c-0.4,0.3-1.4,0.5-1.6-0.8c0,0,0.1-1,1-1c0,0,0.3,0,0.7,0.3c0.4,0.3,0.9,0.1,0.9-0.4v-2.1
	c0,0,0.1-0.4,0.5-0.5h2c0,0,0.5,0,0.6-0.4c0.1-0.4-0.2-0.6-0.3-0.8c-0.1-0.2-0.3-0.4,0-1c0.3-0.5,1.4-0.7,1.8,0c0,0,0.3,0.6-0.1,1
	c0,0-0.3,0.3-0.3,0.6c0,0.3,0.3,0.5,0.7,0.5h2c0,0,0.4,0,0.5,0.4v2.1c0,0,0,0.5,0.4,0.6c0,0,0.3,0.1,0.5-0.2
	c0.3-0.3,1.2-0.5,1.5,0.3C252.4,93.2,251.6,94.3,250.6,93.7z"/>
<path class="st6" d="M205.9,96.9l1.1,1c0,0,0.2,0.2,0,0.5l-1.1,1.1c0,0-0.3,0.3-0.1,0.5c0,0,0.1,0.2,0.4,0.2c0.3,0,0.9,0.3,0.6,1
	c-0.2,0.7-1.2,0.8-1.4-0.1c0,0,0-0.3-0.2-0.4c0,0-0.2-0.2-0.5,0l-1.1,1.1c0,0-0.2,0.2-0.4,0l-1.1-1.1c0,0-0.2-0.2-0.5-0.1
	c0,0-0.2,0.1-0.2,0.4c0,0-0.1,0.8-1,0.6c0,0-0.9-0.4-0.4-1.2c0,0,0.3-0.3,0.6-0.3c0,0,0.6-0.2,0.2-0.7l-1.1-1.1c0,0-0.2-0.2,0-0.5
	l1.1-1.1c0,0,0.2-0.3,0-0.5c0,0,0-0.1-0.4-0.1c-0.3,0-1-0.4-0.4-1.3c0,0,0.6-0.5,1.1,0c0,0,0.2,0.1,0.2,0.5c0,0.4,0.4,0.5,0.7,0.2
	l1.1-1.1c0,0,0.2-0.2,0.5,0l1.1,1c0,0,0.3,0.3,0.5,0.1c0.3-0.2,0.2-0.4,0.2-0.6c0.1-0.1,0.1-0.4,0.5-0.5c0.4-0.1,1.1,0.4,1,1
	c0,0-0.1,0.5-0.6,0.5c0,0-0.3,0-0.4,0.2C205.6,96.5,205.6,96.8,205.9,96.9z"/>
</svg>
