<svg id="_1" data-name="1" xmlns="http://www.w3.org/2000/svg" viewBox="0 0 37.8 37.51"><defs><style>.cls-1{fill:#daff00;}.cls-1,.cls-2,.cls-3,.cls-4,.cls-5,.cls-6,.cls-7{fill-rule:evenodd;}.cls-2{fill:#1cabf2;}.cls-3{fill:#f9993a;}.cls-4{fill:#9ff;}.cls-5{fill:#9cc;}.cls-6{fill:#15e879;}.cls-7{fill:#f66;}</style></defs><title>upLogo</title><path class="cls-1" d="M425.06,423.12l1.74,5c1.7.48,2.8-.09,2.58-1.6a9,9,0,0,0-1.52-4C427.12,421.51,425.73,421.86,425.06,423.12Z" transform="translate(-406.3 -406.44)"/><path class="cls-2" d="M419.53,420.79l4.2-1.47.31.89c1.83-2.68,4.54-3.06,6.21-1.53,2.48,2.27,4.28,6.31,3.45,9.92-.52,2.27-3.4,3.21-5.83,2.59l3.5,10.06c-1.55.22-3.34-.55-4.83-2.88l-.76.36-6.25-17.94Zm5.53,2.33,1.74,5c1.7.48,2.8-.09,2.58-1.6a9,9,0,0,0-1.52-4C427.12,421.51,425.73,421.86,425.06,423.12Z" transform="translate(-406.3 -406.44)"/><path class="cls-3" d="M414.89,422.37l3.92-1.36,3.18,9.12c1.25,3.6-1.17,6.28-4.25,7.36s-6.65.47-7.91-3.13l-1.46-4.19,2.2-6.29,3.16,9.05a2.29,2.29,0,0,0,4.32-1.5Z" transform="translate(-406.3 -406.44)"/><path class="cls-2" d="M434.93,425c.28,1.87,2.05,2.22,3.3,1.12,2.25-2,5.72-.92,5.87,2.68-.15,3.61-3.62,4.67-5.86,2.69-1.29-1.14-3.14-.73-3.34,1.3Z" transform="translate(-406.3 -406.44)"/><path class="cls-3" d="M417.36,415.64a1.91,1.91,0,0,0,1.42-3.34c-2-2.24-.92-5.71,2.68-5.86,3.61.15,4.67,3.62,2.69,5.87-1.13,1.28-.74,3.11,1.28,3.32Z" transform="translate(-406.3 -406.44)"/><path class="cls-4" d="M434.93,425l0,7.79v3.89a4.43,4.43,0,0,1-3.52,4.56l-3.5-10.06c2.43.62,5.31-.32,5.83-2.59a8.73,8.73,0,0,0,.09-3.34Z" transform="translate(-406.3 -406.44)"/><path class="cls-5" d="M419.53,420.79l6.25,17.94-9.17,4.39c-1.66.79-3.34,1.37-4.81.06l-4.4-3.93a3.42,3.42,0,0,1-.81-4l1.78-5.09,1.46,4.19c1.26,3.6,4.82,4.2,7.91,3.13s5.5-3.76,4.25-7.36L418.81,421Z" transform="translate(-406.3 -406.44)"/><path class="cls-1" d="M414.89,422.37l3.16,9.06a2.29,2.29,0,0,1-4.32,1.5l-3.16-9.05Z" transform="translate(-406.3 -406.44)"/><path class="cls-6" d="M410.51,415.65h14.92L424,420.21l-.31-.89-4.2,1.47-.72.22-3.92,1.36-4.32,1.51L408.08,422C405.73,420.24,407.54,415.66,410.51,415.65Z" transform="translate(-406.3 -406.44)"/><path class="cls-7" d="M425.43,415.63h6.22a3.06,3.06,0,0,1,3.29,2.83V425l-1.14.25a11.74,11.74,0,0,0-3.54-6.58c-1.67-1.53-4.38-1.15-6.21,1.53Z" transform="translate(-406.3 -406.44)"/></svg>